<?xml version="1.0" encoding="UTF-8"?>
<svg xmlns="http://www.w3.org/2000/svg" xmlns:xlink="http://www.w3.org/1999/xlink" viewBox="0 0 48.32 23.03">
  <defs>
    <style>
      .cls-1 {
        fill: url(#linear-gradient);
      }

      .cls-1, .cls-2, .cls-3, .cls-4 {
        stroke-width: 0px;
      }

      .cls-5 {
        isolation: isolate;
      }

      .cls-2 {
        fill: url(#linear-gradient-3);
      }

      .cls-2, .cls-4 {
        mix-blend-mode: overlay;
        opacity: .51;
      }

      .cls-3 {
        fill: url(#linear-gradient-2);
      }

      .cls-4 {
        fill: url(#linear-gradient-4);
      }
    </style>
    <linearGradient id="linear-gradient" x1="32.02" y1="1.77" x2="31.09" y2="19.02" gradientUnits="userSpaceOnUse">
      <stop offset="0" stop-color="#333"/>
      <stop offset="1" stop-color="#000"/>
    </linearGradient>
    <linearGradient id="linear-gradient-2" x1="10.03" y1=".58" x2="9.1" y2="17.83" xlink:href="#linear-gradient"/>
    <linearGradient id="linear-gradient-3" x1="31.68" y1="11.71" x2="31.68" y2=".26" gradientUnits="userSpaceOnUse">
      <stop offset="0" stop-color="#fff"/>
      <stop offset="1" stop-color="#000" stop-opacity="0"/>
    </linearGradient>
    <linearGradient id="linear-gradient-4" x1="9.59" y1="11.71" x2="9.59" y2=".26" xlink:href="#linear-gradient-3"/>
  </defs>
  <g class="cls-5">
    <g id="Layer_2" data-name="Layer 2">
      <g id="Layer_1-2" data-name="Layer 1">
        <g>
          <g>
            <polygon class="cls-1" points="48.32 11.58 48.3 11.57 32.4 0 32.4 4.34 15.06 4.34 22.57 11.51 22.64 11.58 16.02 18.42 32.4 18.42 32.4 23.03 48.32 11.58"/>
            <polygon class="cls-3" points="19.17 11.5 12.06 4.39 0 4.39 6.97 11.44 6.94 11.47 0 18.49 12.35 18.49 19.26 11.58 19.17 11.5"/>
          </g>
          <polygon class="cls-2" points="32.4 0 32.4 4.34 15.06 4.34 22.57 11.51 48.3 11.57 32.4 0"/>
          <polygon class="cls-4" points="0 4.39 6.97 11.44 6.94 11.47 19.17 11.5 12.06 4.39 0 4.39"/>
        </g>
      </g>
    </g>
  </g>
</svg>