<?xml version="1.0" encoding="UTF-8"?>
<svg id="Layer_2" data-name="Layer 2" xmlns="http://www.w3.org/2000/svg" xmlns:xlink="http://www.w3.org/1999/xlink" viewBox="0 0 166.72 54.56">
  <defs>
    <style>
      .cls-1 {
        fill: url(#linear-gradient-12);
      }

      .cls-1, .cls-2, .cls-3, .cls-4, .cls-5, .cls-6, .cls-7, .cls-8, .cls-9, .cls-10, .cls-11, .cls-12, .cls-13, .cls-14, .cls-15, .cls-16, .cls-17, .cls-18, .cls-19, .cls-20, .cls-21, .cls-22 {
        stroke-width: 0px;
      }

      .cls-2 {
        fill: url(#linear-gradient-17);
      }

      .cls-3 {
        fill: url(#linear-gradient-19);
      }

      .cls-4 {
        fill: url(#linear-gradient);
      }

      .cls-5 {
        fill: url(#linear-gradient-21);
      }

      .cls-6 {
        fill: url(#linear-gradient-6);
      }

      .cls-7 {
        fill: url(#linear-gradient-15);
      }

      .cls-8 {
        fill: url(#linear-gradient-11);
      }

      .cls-9 {
        fill: url(#linear-gradient-5);
      }

      .cls-10 {
        fill: url(#linear-gradient-13);
      }

      .cls-11 {
        fill: url(#linear-gradient-16);
      }

      .cls-12 {
        fill: url(#linear-gradient-22);
      }

      .cls-13 {
        fill: url(#linear-gradient-20);
      }

      .cls-14 {
        fill: url(#linear-gradient-14);
      }

      .cls-15 {
        fill: url(#linear-gradient-2);
      }

      .cls-16 {
        fill: url(#linear-gradient-7);
      }

      .cls-17 {
        fill: url(#linear-gradient-3);
      }

      .cls-18 {
        fill: url(#linear-gradient-9);
      }

      .cls-19 {
        fill: url(#linear-gradient-8);
      }

      .cls-20 {
        fill: url(#linear-gradient-18);
      }

      .cls-21 {
        fill: url(#linear-gradient-10);
      }

      .cls-22 {
        fill: url(#linear-gradient-4);
      }
    </style>
    <linearGradient id="linear-gradient" x1="80.04" y1="10.47" x2="2.68" y2="78.74" gradientUnits="userSpaceOnUse">
      <stop offset="0" stop-color="#e2c789"/>
      <stop offset=".3" stop-color="#b6871a"/>
      <stop offset=".49" stop-color="#ffefbb"/>
      <stop offset=".79" stop-color="#c8a146"/>
      <stop offset="1" stop-color="#e2c789"/>
    </linearGradient>
    <linearGradient id="linear-gradient-2" x1="71.95" y1="1.3" x2="-5.41" y2="69.57" gradientUnits="userSpaceOnUse">
      <stop offset="0" stop-color="#e2c789"/>
      <stop offset=".3" stop-color="#b6871a"/>
      <stop offset=".49" stop-color="#f6f0e3"/>
      <stop offset=".79" stop-color="#c8a146"/>
      <stop offset="1" stop-color="#e2c789"/>
    </linearGradient>
    <linearGradient id="linear-gradient-3" x1="89.15" y1="20.79" x2="11.79" y2="89.06" xlink:href="#linear-gradient-2"/>
    <linearGradient id="linear-gradient-4" x1="61.52" y1="-10.51" x2="-15.84" y2="57.76" xlink:href="#linear-gradient-2"/>
    <linearGradient id="linear-gradient-5" x1="75.52" y1="5.35" x2="-1.84" y2="73.62" xlink:href="#linear-gradient-2"/>
    <linearGradient id="linear-gradient-6" x1="70.85" y1=".06" x2="-6.51" y2="68.33" xlink:href="#linear-gradient-2"/>
    <linearGradient id="linear-gradient-7" x1="62.5" y1="-9.4" x2="-14.85" y2="58.87" xlink:href="#linear-gradient-2"/>
    <linearGradient id="linear-gradient-8" x1="66.96" y1="-4.35" x2="-10.4" y2="63.92" xlink:href="#linear-gradient-2"/>
    <linearGradient id="linear-gradient-9" x1="58.63" y1="73.82" x2="154.39" y2="-7.62" xlink:href="#linear-gradient-2"/>
    <linearGradient id="linear-gradient-10" x1="47.52" y1="60.76" x2="143.29" y2="-20.68" xlink:href="#linear-gradient-2"/>
    <linearGradient id="linear-gradient-11" x1="77.63" y1="96.17" x2="173.4" y2="14.73" xlink:href="#linear-gradient-2"/>
    <linearGradient id="linear-gradient-12" x1="53.65" y1="67.96" x2="149.42" y2="-13.47" xlink:href="#linear-gradient-2"/>
    <linearGradient id="linear-gradient-13" x1="69.17" y1="86.22" x2="164.94" y2="4.79" xlink:href="#linear-gradient-2"/>
    <linearGradient id="linear-gradient-14" x1="54.26" y1="68.69" x2="150.03" y2="-12.75" xlink:href="#linear-gradient-2"/>
    <linearGradient id="linear-gradient-15" x1="59.55" y1="74.9" x2="155.32" y2="-6.53" xlink:href="#linear-gradient-2"/>
    <linearGradient id="linear-gradient-16" x1="64.45" y1="80.66" x2="160.21" y2="-.78" xlink:href="#linear-gradient-2"/>
    <linearGradient id="linear-gradient-17" x1="68.47" y1="85.39" x2="164.24" y2="3.95" xlink:href="#linear-gradient-2"/>
    <linearGradient id="linear-gradient-18" x1="72.76" y1="90.44" x2="168.52" y2="9" xlink:href="#linear-gradient-2"/>
    <linearGradient id="linear-gradient-19" x1="77.78" y1="96.34" x2="173.55" y2="14.9" xlink:href="#linear-gradient-2"/>
    <linearGradient id="linear-gradient-20" x1="79.21" y1="98.02" x2="174.98" y2="16.59" xlink:href="#linear-gradient-2"/>
    <linearGradient id="linear-gradient-21" x1="83.51" y1="103.08" x2="179.28" y2="21.64" xlink:href="#linear-gradient-2"/>
    <linearGradient id="linear-gradient-22" x1="88.92" y1="109.44" x2="184.68" y2="28" xlink:href="#linear-gradient-2"/>
  </defs>
  <g id="Layer_1-2" data-name="Layer 1">
    <g>
      <path id="Path_3476" data-name="Path 3476" class="cls-4" d="m51.21,50.9c-8.44-.89-15.12-7.54-16.06-15.98-.02.02-.05.05-.07.07-1.03,1-2.68.98-3.68-.05-.95,8.44-7.65,15.09-16.1,15.96.49.48.78,1.12.81,1.8,0,.68-.26,1.33-.7,1.84.18,0,.29.02.39.02h.02l35.2-.02s.02-.02.03-.03c0-.01.01-.03.02-.04-.9-1.04-.84-2.6.14-3.57Zm-20.07,1.1c-4.89,0-9.27-.02-9.59-.07,5.67-2.45,9.97-7.29,11.72-13.21,1.74,5.91,6.02,10.74,11.67,13.18-.2.06-7.42.09-13.79.09h0Z"/>
      <path id="Path_3477" data-name="Path 3477" class="cls-15" d="m13.63,50.98h-.06c-.98.03-1.75.86-1.72,1.84.03.96.82,1.72,1.78,1.72h.02c.98-.01,1.76-.8,1.77-1.78-.01-.98-.81-1.77-1.79-1.78Z"/>
      <path id="Path_3478" data-name="Path 3478" class="cls-17" d="m52.91,50.98h-.04c-.98.03-1.76.85-1.73,1.83.03.95.8,1.71,1.75,1.73h.05c.98-.01,1.76-.81,1.75-1.79h0c0-.98-.79-1.77-1.77-1.78Z"/>
      <path id="Path_3479" data-name="Path 3479" class="cls-22" d="m12.2,45.23c2.92-.04,5.72-1.18,7.82-3.21,4.86-4.43,5.2-11.95.77-16.81-.56-.62-1.19-1.17-1.87-1.66-.23-.17-.48-.31-.64-.42l-3.19,1.27c.16.07.3.13.45.19,4.77,1.98,7.04,7.45,5.06,12.22-1.74,4.19-6.23,6.54-10.66,5.56-5.05-1.11-8.23-6.11-7.12-11.16.44-1.99,1.51-3.78,3.06-5.1,1.73-1.49,3.95-2.29,6.24-2.25,3.32-.02,6.47-1.44,8.68-3.92.48-.51.91-1.07,1.27-1.68-.44-1.1-.84-2.12-1.27-3.16-.05.1-.1.2-.14.29-1.44,3.61-4.94,5.96-8.83,5.92-.66,0-1.31.07-1.96.18C4.2,22.48.04,27.38,0,33.13v.04c0,.7.07,1.4.19,2.09.62,4.33,3.67,7.92,7.84,9.23h0c1.34.48,2.75.73,4.17.74Z"/>
      <path id="Path_3480" data-name="Path 3480" class="cls-9" d="m66.26,31.06c-1.21-6.48-7.45-10.74-13.92-9.53-3.15.57-5.93,2.41-7.69,5.08-.17.21-.19.5-.05.73.32.66.58,1.35.86,2.03.09.23.15.48.25.78.08-.18.14-.29.19-.4,1.92-4.8,7.37-7.13,12.17-5.21,4.8,1.92,7.13,7.37,5.21,12.17-1.36,3.39-4.57,5.68-8.22,5.87-2.72.18-5.37-.88-7.22-2.88-1.72-1.77-2.67-4.15-2.62-6.62,0-.98-.14-1.95-.39-2.89-1.38-5.23-6.1-8.88-11.51-8.89h0c-4.01,0-7.75,2.01-9.98,5.34-.15.2-.17.48-.04.69.35.79.65,1.6.97,2.4.04.11.08.22.15.42.09-.21.15-.34.2-.47,1.97-4.79,7.45-7.08,12.24-5.11,3.4,1.4,5.67,4.66,5.81,8.33,0,.74.06,1.47.15,2.2h0c.91,5.8,5.92,10.07,11.79,10.05.72,0,1.44-.06,2.15-.19,6.47-1.21,10.74-7.45,9.53-13.92Z"/>
      <path id="Path_3481" data-name="Path 3481" class="cls-6" d="m33.27,35.02c.98-.02,1.77-.83,1.75-1.81-.02-.96-.79-1.73-1.75-1.75h0c-.97,0-1.77.79-1.77,1.76v.07c.01.97.81,1.74,1.78,1.73h0Z"/>
      <path id="Path_3482" data-name="Path 3482" class="cls-16" d="m26.93,22.06l3.2-1.28-.34-.13c-4.13-1.62-6.54-5.93-5.76-10.3.9-5.11,5.77-8.51,10.88-7.61,1.96.35,3.76,1.31,5.14,2.74,1.74,1.78,2.68,4.18,2.62,6.67.01,3.5,1.61,6.81,4.33,9.01h0c.41.35.87.65,1.23.92l3.17-1.27c-.61-.28-1.2-.59-1.77-.93-2.8-1.72-4.47-4.78-4.41-8.06-.01-1.11-.17-2.21-.48-3.27C43.21,3.48,38.55.01,33.27,0c-3.33,0-6.52,1.39-8.78,3.83-3.99,4.3-4.26,10.86-.64,15.48.85,1.1,1.9,2.03,3.09,2.74Z"/>
      <path id="Path_3483" data-name="Path 3483" class="cls-19" d="m36.4,20.78h0c1.06.42,2.11.84,3.2,1.28,1.55-.94,2.85-2.24,3.79-3.78l-1.28-3.19c-.96,2.66-3.05,4.74-5.71,5.7Z"/>
    </g>
    <path id="Path_3458" data-name="Path 3458" class="cls-18" d="m109.1,20.74c.24.45.46.91.65,1.38,2.09,5.27,4.18,10.55,6.27,15.83h0c.27.67.32.82.75.82.13,0,.29-.01.49-.03.06-.01.12-.03.18-.06.06-.15.13-.3.19-.45,2.15-5.25,4.32-10.5,6.5-15.74.31-.7.67-1.38,1.09-2.03.02-.03.04-.06.06-.09.38-.53.97-.87,1.61-.95l.95-.17v-.85c-.26-.06-1.77-.09-3.34-.09h-.16c-1.22-.03-2.45,0-3.66.11v.83c.18.03.31.05.43.07.46.08.92.19,1.37.32.03,0,.07.02.1.03.4.14.61.58.46.98-.05.26-.11.51-.19.76-1.47,4.26-3.17,8.44-4.88,12.61-.04.07-.09.14-.15.2-.08-.18-.14-.29-.19-.41-1.66-4.17-3.32-8.34-4.97-12.52-.11-.28-.2-.57-.27-.86-.12-.5.02-.73.51-.91.18-.06.36-.11.55-.14.31-.06.62-.1.95-.16v-.9h-7.99v.92c.27.04.51.09.75.12.85.08,1.59.6,1.95,1.37Z"/>
    <path id="Path_3459" data-name="Path 3459" class="cls-21" d="m90.79,38h0c1.28.49,2.64.72,4.01.68.06-.3.12-.57.18-.84-.38-.14-.75-.31-1.1-.53-.5-.37-.96-.78-1.38-1.24-1.87-2.23-3.53-4.64-4.95-7.19-.02-.06-.04-.12-.05-.18.09-.06.18-.12.27-.18.41-.23.84-.43,1.22-.69,1.95-1.22,2.87-3.58,2.25-5.8-.4-1.61-1.65-2.87-3.25-3.3-.84-.27-1.72-.42-2.61-.42-3.01-.03-6.02-.03-9.03-.03-.1.01-.19.03-.29.06v.89c.18.02.29.03.4.04.36.04.71.06,1.06.14.61.06,1.09.54,1.14,1.15.05.37.08.75.09,1.12.01,4.42.01,8.84,0,13.25,0,.43-.05.86-.13,1.29-.08.46-.42.83-.87.95-.23.08-.47.13-.71.17-.37.06-.74.1-1.11.16v.86h8.53v-.84c-.58-.1-1.12-.17-1.65-.3-.58-.11-1.01-.6-1.05-1.18-.05-.29-.08-.59-.09-.89,0-1.65,0-3.31,0-4.96,0-.16.03-.32.05-.49.54,0,1.03-.02,1.52,0,.81,0,1.56.43,1.97,1.13.33.53.65,1.06.98,1.58.76,1.19,1.5,2.39,2.29,3.56.57.88,1.36,1.58,2.3,2.04Zm-5.79-9.59c-.61.14-1.23.21-1.85.19-.47,0-.95-.02-1.44-.03-.01-.23-.03-.41-.03-.59v-7.09c0-.11,0-.22,0-.34.06-.69.26-.93.94-1.05.36-.07.73-.1,1.1-.1.74,0,1.47.15,2.14.45,1.39.63,2.29,2.01,2.29,3.54.05.6.01,1.2-.1,1.79-.26,1.61-1.48,2.89-3.07,3.23h0Z"/>
    <path id="Path_3460" data-name="Path 3460" class="cls-8" d="m166.72,37.9c-.54-.28-1.06-.6-1.56-.95-.43-.36-.83-.76-1.18-1.21-1.73-2.14-3.27-4.41-4.63-6.8-.03-.07-.06-.15-.09-.22.02-.03.04-.05.07-.07.22-.11.44-.22.65-.34,1.88-.81,3.13-2.64,3.2-4.69.17-1.81-.76-3.55-2.36-4.42-1.12-.6-2.37-.9-3.64-.88-2.06-.03-4.11-.03-6.17-.03h-2.85c-.1.01-.19.03-.28.06v.88c.5.06.93.1,1.36.18.67.03,1.21.57,1.24,1.25.06.41.1.82.1,1.23,0,4.29,0,8.57,0,12.86,0,.45-.05.9-.11,1.35-.03.29-.16.55-.36.76-.19.18-.42.31-.67.37-.2.05-.4.1-.61.13-.35.06-.7.11-1.04.16v.84c1.06.14,8.09.08,8.47-.06v-.78c-.44-.06-.85-.11-1.25-.18h0c-.86-.04-1.52-.76-1.48-1.62,0,0,0,0,0,0-.01-.09-.02-.19-.02-.28-.01-1.75-.02-3.5-.03-5.25.01-.18.03-.37.06-.55.67.04,1.29.04,1.9.12.63.08,1.18.44,1.51.98.24.36.46.73.69,1.09.85,1.35,1.68,2.71,2.57,4.04.69,1.12,1.75,1.96,2.99,2.38,1.07.29,2.18.43,3.29.42h0s.06-.04.14-.08c.03-.23.07-.5.09-.68Zm-9.99-9.48c-.61.13-1.22.19-1.84.17h-.08c-.44,0-.89-.02-1.35-.03v-7.28c0-.32.01-.64.05-.95.02-.41.33-.75.74-.81.42-.08.84-.12,1.27-.13.87,0,1.74.21,2.5.63.8.44,1.4,1.17,1.67,2.04.41,1.18.42,2.46.03,3.65-.42,1.39-1.57,2.43-2.99,2.7h0Z"/>
    <path id="Path_3461" data-name="Path 3461" class="cls-1" d="m104.5,38.32v-.81c-.46-.06-.87-.1-1.28-.16-.8,0-1.44-.66-1.44-1.46-.05-.47-.07-.94-.07-1.4v-12.23c0-.43.01-.86.06-1.29.01-.38.14-.75.37-1.06.31-.3.72-.48,1.15-.49.4-.06.8-.11,1.23-.17v-.85c-.31-.06-1.97-.09-3.75-.09-2.21,0-4.61.04-4.83.11v.85c.22.02.41.03.59.06.39.05.78.11,1.17.2.5.1.88.51.93,1.02.08.5.12,1,.13,1.51,0,4.21,0,8.42,0,12.63,0,.51-.05,1.01-.13,1.51-.06.52-.45.95-.97,1.06-.2.05-.4.1-.61.13-.37.05-.74.1-1.11.15v.83c.32.04,1.8.06,3.43.06,2.29,0,4.89-.03,5.13-.1Z"/>
    <path id="Path_3462" data-name="Path 3462" class="cls-10" d="m144.94,37.89c.25-1.08.49-2.16.73-3.24.09-.4.16-.8.25-1.26-.37-.05-.68-.08-1-.12-.1.24-.17.43-.27.61-.35.66-.69,1.33-1.08,1.97-.44.73-1.2,1.19-2.04,1.25-.82.09-1.65.13-2.48.14-.73,0-1.47-.04-2.19-.13-.76-.02-1.37-.62-1.41-1.38-.06-.37-.09-.75-.08-1.12,0-1.77,0-3.54,0-5.3v-.56c.13-.03.25-.06.38-.07,1.22.01,2.44,0,3.66.05,1.45.06,1.83.38,2.13,1.83.12.6.24.59.57.58h.17c.11-.01.22-.03.33-.06v-6h-.93c-.09.35-.16.68-.25,1-.13.65-.68,1.13-1.34,1.19-.3.05-.6.07-.9.09-1.07.02-2.14.03-3.21.03-.18,0-.37-.02-.57-.03-.02-.17-.04-.3-.04-.43v-6.6c0-.09,0-.19.01-.28.05-.37.14-.48.53-.54.17-.02.33-.04.5-.04.94,0,1.88-.02,2.82,0,.64.02,1.27.08,1.9.19.58.07,1.07.44,1.3.97.26.6.49,1.21.74,1.82.07.17.12.35.19.57l.85-.12h.11c-.1-1.29-.16-2.54-.25-3.77-.02-.26-.04-.53-.06-.79h-14.3v.88c.6.1,1.14.18,1.67.3.46.09.81.46.87.93.08.46.13.93.13,1.4,0,4.34,0,8.68,0,13.02,0,.17,0,.34,0,.51.02.49-.12.97-.4,1.37-.38.38-.89.6-1.43.62-.28.04-.56.07-.84.11-.13.02-.25.05-.38.07v.88h14.94c.53,0,.55,0,.67-.53Z"/>
    <g>
      <path class="cls-14" d="m79.28,44.08c1.21,0,2.12.21,2.75.63.76.5,1.19,1.24,1.19,2.29,0,2.21-1.88,3.14-3.51,3.16-.15,0-.35-.02-.46-.03l-.88-.23v2.08c0,1.28.11,1.34,1.43,1.46v.56h-4.85v-.56c1.14-.14,1.3-.18,1.3-1.46v-5.83c0-1.28-.15-1.42-1.3-1.5v-.56h4.33Zm-.92,5.17c.18.09.49.15.81.15.7,0,1.85-.41,1.85-2.43,0-1.71-.93-2.27-1.92-2.27-.32,0-.5.08-.59.15-.11.09-.14.24-.14.47v3.92Z"/>
      <path class="cls-7" d="m90.05,43.87c2.82,0,5.13,2.06,5.13,5.07,0,3.25-2.32,5.29-5.2,5.29-3.05,0-5.26-2.23-5.26-5.17,0-2.61,1.86-5.19,5.34-5.19Zm-.23.67c-1.56,0-2.7,1.53-2.7,4.23s1.02,4.79,3.08,4.79c1.45,0,2.58-1.4,2.58-4.2,0-3.02-1.19-4.82-2.96-4.82Z"/>
      <path class="cls-11" d="m96.49,44.08h4.62v.56c-1.1.14-1.27.21-1.27,1.5v2.56c.32-.09.69-.34,1.19-.81,1.04-1.02,1.71-1.85,2.17-2.43.37-.47.27-.7-.43-.79l-.29-.03v-.56h4v.56c-1.05.14-1.62.21-2.58,1.25-.6.63-1.34,1.39-2.01,2.12.96,1.34,2.15,2.98,3.33,4.46.56.73.76.84,1.54.96v.56h-3.04c-.64-.87-1.98-2.72-3.07-4.26-.32-.46-.56-.55-.81-.5v2.7c0,1.3.11,1.34,1.28,1.5v.56h-4.64v-.56c1.14-.12,1.3-.2,1.3-1.5v-5.8c0-1.28-.15-1.39-1.3-1.5v-.56Z"/>
      <path class="cls-2" d="m115.69,51.41c-.08.41-.5,2.17-.64,2.59h-7.92v-.55c1.39-.14,1.48-.21,1.48-1.5v-5.83c0-1.3-.18-1.39-1.22-1.48v-.56h4.96c1.6,0,2.14-.02,2.35-.03.02.27.09,1.53.15,2.47l-.6.08c-.14-.52-.4-1.14-.66-1.42-.28-.31-.47-.4-1.25-.4h-.99c-.58,0-.64.03-.64.55v3.19h1.5c.85,0,1.01-.23,1.24-1.31h.6v3.4h-.6c-.24-1.13-.37-1.31-1.25-1.31h-1.48v2.62c0,1.05.03,1.37.98,1.39h1.08c.85,0,1.08-.11,1.42-.52.38-.44.69-1.01.93-1.53l.56.14Z"/>
      <path class="cls-20" d="m126.18,54.09c-.09,0-.27,0-.46-.02-1.94-.09-2.5-.5-2.96-1.14-.61-.84-1.05-1.77-1.57-2.69-.23-.41-.44-.5-.93-.5l-.31-.02v2.23c0,1.24.15,1.34,1.3,1.48v.56h-4.67v-.56c1.16-.12,1.3-.24,1.3-1.48v-5.84c0-1.21-.15-1.37-1.3-1.46v-.56h4.42c1.36,0,2.14.15,2.76.58.61.41,1.02,1.08,1.02,2.03,0,1.36-.9,2.08-1.91,2.47.23.46.82,1.45,1.28,2.15.53.84.87,1.25,1.16,1.59.35.4.52.52.96.67l-.11.52Zm-5.81-4.99c.66,0,1.16-.11,1.5-.4.5-.43.72-1.01.72-1.79,0-1.62-.93-2.2-1.79-2.2-.41,0-.61.06-.7.15-.11.09-.14.27-.14.58v3.65h.41Z"/>
      <path class="cls-3" d="m128.85,54.18c-.72,0-1.24-.53-1.24-1.28s.52-1.27,1.24-1.27,1.25.53,1.25,1.27-.52,1.28-1.25,1.28Z"/>
      <path class="cls-13" d="m140.5,51.38c-.21.76-.61,1.92-.85,2.46-.4.09-1.65.4-2.81.4-4.1,0-5.8-2.64-5.8-5.07,0-3.16,2.41-5.29,6.07-5.29,1.33,0,2.5.32,2.88.37.08.72.18,1.85.29,2.52l-.61.11c-.32-1.19-.78-1.75-1.59-2.08-.37-.15-.92-.21-1.33-.21-2.21,0-3.33,1.85-3.33,4.24,0,2.79,1.43,4.68,3.53,4.68,1.28,0,2.14-.67,2.96-2.35l.58.23Z"/>
      <path class="cls-5" d="m147.14,43.87c2.82,0,5.13,2.06,5.13,5.07,0,3.25-2.32,5.29-5.2,5.29-3.05,0-5.26-2.23-5.26-5.17,0-2.61,1.86-5.19,5.34-5.19Zm-.23.67c-1.56,0-2.7,1.53-2.7,4.23s1.02,4.79,3.08,4.79c1.45,0,2.58-1.4,2.58-4.2,0-3.02-1.19-4.82-2.96-4.82Z"/>
      <path class="cls-12" d="m161.57,54v-.56c1.16-.12,1.24-.23,1.24-1.6v-5.95c-1.11,2.62-2.32,5.52-3.42,8.12h-.5c-.99-2.49-2.08-5.33-3.17-8-.2,4.79-.2,5.74-.2,6.29.02.82.32,1.04,1.46,1.14v.56h-3.78v-.56c.87-.08,1.27-.24,1.39-1.16.06-.46.12-1.33.47-6.36.04-.73-.06-1.14-1.37-1.27v-.56h3.3l2.95,6.73,2.96-6.73h3.22v.56c-1.22.12-1.36.24-1.33,1.46l.12,5.72c.01,1.37.08,1.43,1.31,1.6v.56h-4.64Z"/>
    </g>
  </g>
</svg>