<?xml version="1.0" encoding="UTF-8"?>
<!DOCTYPE svg PUBLIC "-//W3C//DTD SVG 1.1//EN" "http://www.w3.org/Graphics/SVG/1.1/DTD/svg11.dtd">
<!-- Creator: CorelDRAW X6 -->
<svg xmlns="http://www.w3.org/2000/svg" xml:space="preserve" width="68.52mm" height="34.1207mm" version="1.1" style="shape-rendering:geometricPrecision; text-rendering:geometricPrecision; image-rendering:optimizeQuality; fill-rule:evenodd; clip-rule:evenodd"
viewBox="0 0 4662 2321"
 xmlns:xlink="http://www.w3.org/1999/xlink">
 <defs>
  <style type="text/css">
   <![CDATA[
    .fil1 {fill:none}
    .fil0 {fill:#9D9E9E}
   ]]>
  </style>
 </defs>
 <g id="Layer_x0020_1">
  <metadata id="CorelCorpID_0Corel-Layer"/>
  <g id="_196163360">
   <path class="fil0" d="M1381 1450l-6 4 6 -4zm97 -719l48 43 -721 815 -48 -43 64 -73c-24,-12 -48,-26 -70,-41 -37,-25 -45,-33 -75,-56 -23,-18 -45,-43 -64,-63 -23,-23 -108,-130 -108,-151 0,-13 62,-100 77,-117 6,-7 8,-11 14,-18 18,-21 60,-63 80,-79 83,-64 133,-102 246,-140 93,-31 158,-39 261,-39 78,0 154,16 223,41l71 -80zm-611 691l22 -25c-40,-44 -88,-117 -88,-234 0,-186 126,-266 140,-287 -22,2 -94,38 -114,49 -55,30 -142,97 -180,145 -10,13 -66,80 -66,93 0,25 118,148 152,174 38,29 86,62 134,85zm67 -75l65 -74c-7,-10 -12,-17 -17,-30 -8,-19 -18,-52 -18,-77 0,-113 90,-201 204,-201 31,0 58,9 83,23l66 -74c-44,-28 -96,-44 -155,-44 -160,0 -293,133 -293,293 0,72 25,135 66,184zm164 2c48,17 93,15 142,-6 33,-14 61,-37 81,-66 45,-62 46,-142 18,-201l-241 273zm307 -347c70,108 71,259 -36,366 -27,26 -50,44 -86,61 -84,40 -176,34 -253,-4l-87 98c192,58 411,39 586,-65 56,-33 65,-42 114,-80l50 -45c7,-8 8,-11 16,-19 27,-26 108,-131 108,-151 0,-22 -108,-160 -137,-182 -12,-9 -40,-37 -69,-59 -26,-20 -55,-39 -87,-57l-46 52c25,14 49,28 62,37 51,34 110,86 147,133l52 72c-5,21 -35,54 -48,73l-37 43c-61,61 -135,119 -215,152 -20,8 -38,18 -60,23 8,-13 16,-14 26,-25l50 -58c73,-103 87,-262 20,-374 -10,-17 -19,-31 -28,-42l-46 52zm-464 -126l6 -4 -6 4z"/>
   <rect class="fil1" width="2321" height="2321"/>
   <g>
    <g>
     <path class="fil0" d="M3721 1448l-6 4 6 -4zm-440 0l7 2 -7 -2zm-73 -287c0,-160 133,-293 293,-293 257,0 392,315 208,498 -27,26 -50,44 -86,61 -186,89 -416,-50 -416,-266zm513 287c8,-13 16,-14 26,-25l50 -58c73,-103 87,-262 20,-374 -53,-90 -85,-98 -97,-117 33,3 126,56 161,78 51,34 110,86 147,133l52 72c-5,21 -35,54 -48,73l-37 43c-61,61 -135,119 -215,152 -20,8 -38,18 -60,23zm-440 0c-71,-16 -151,-70 -209,-113 -34,-25 -152,-148 -152,-174 0,-13 56,-80 66,-93 38,-48 125,-116 180,-145 20,-11 92,-47 114,-49 -14,21 -140,101 -140,287 0,187 123,262 140,287zm440 -574l-7 -2 7 2zm-440 0l6 -4 -6 4zm-437 287c0,20 85,127 108,151 20,20 41,45 64,63 30,23 38,32 75,56 224,150 541,166 779,25 56,-33 65,-42 114,-80l50 -45c7,-8 8,-11 16,-19 27,-26 108,-131 108,-151 0,-22 -108,-160 -137,-182 -12,-9 -40,-37 -69,-59 -105,-79 -263,-152 -429,-152 -104,0 -168,7 -261,39 -113,38 -163,76 -246,140 -21,16 -62,58 -80,79 -6,7 -8,10 -14,18 -16,18 -77,105 -77,117z"/>
     <path class="fil0" d="M3418 1161l-32 0c5,-11 2,-11 4,-25 1,-4 4,-16 7,-22 13,-31 46,-59 79,-64 14,-2 14,1 25,-4l0 32c-46,0 -83,37 -83,83zm-115 3c0,26 10,58 18,77 5,12 10,20 17,30l22 29c11,12 42,33 59,40 55,23 105,24 159,1 33,-14 61,-37 81,-66 63,-88 40,-209 -29,-262 -36,-27 -75,-51 -124,-51 -114,0 -204,88 -204,201z"/>
    </g>
    <rect class="fil1" x="2340" width="2321" height="2321"/>
   </g>
  </g>
 </g>
</svg>
