<svg width="12" height="14" viewBox="0 0 12 14" fill="none" xmlns="http://www.w3.org/2000/svg">
<path d="M4.24176 6.90635C4.44786 7.22469 4.38625 6.95943 4.38625 13.3047C4.38625 13.8725 4.99319 14.1975 5.42096 13.8579C7.24889 12.3869 7.61409 12.2595 7.61409 11.5714C7.61409 6.94748 7.5636 7.20752 7.75858 6.90635L10.7269 2.59375H1.27344L4.24176 6.90635Z" fill="white"/>
<path d="M11.926 0.351641C11.8185 0.134805 11.6076 0 11.3755 0H0.621596C0.120325 0 -0.174619 0.595465 0.112925 1.02813C0.11529 1.03228 0.0802863 0.981833 0.635357 1.77735H11.3617C11.8347 1.09941 12.1509 0.806504 11.926 0.351641Z" fill="white"/>
</svg>
