<?xml version="1.0" encoding="UTF-8"?>
<!DOCTYPE svg PUBLIC "-//W3C//DTD SVG 1.1//EN" "http://www.w3.org/Graphics/SVG/1.1/DTD/svg11.dtd">
<!-- Creator: CorelDRAW X6 -->
<svg xmlns="http://www.w3.org/2000/svg" xml:space="preserve" width="19.7979mm" height="19.7979mm" version="1.1" style="shape-rendering:geometricPrecision; text-rendering:geometricPrecision; image-rendering:optimizeQuality; fill-rule:evenodd; clip-rule:evenodd"
viewBox="0 0 2032 2032"
 xmlns:xlink="http://www.w3.org/1999/xlink">
 <defs>
  <style type="text/css">
   <![CDATA[
    .fil0 {fill:#FFE454}
   ]]>
  </style>
 </defs>
 <g id="Layer_x0020_1">
  <metadata id="CorelCorpID_0Corel-Layer"/>
  <path class="fil0" d="M1016 0c561,0 1016,455 1016,1016 0,561 -455,1016 -1016,1016 -561,0 -1016,-455 -1016,-1016 0,-561 455,-1016 1016,-1016zm127 826l0 738c0,51 -12,90 -36,116 -24,26 -55,39 -92,39 -37,0 -68,-13 -91,-40 -23,-27 -35,-65 -35,-115l0 -730c0,-51 12,-89 35,-114 23,-26 54,-38 91,-38 37,0 68,13 92,38 24,26 36,61 36,107zm-126 -264c-35,0 -66,-11 -91,-33 -25,-22 -38,-53 -38,-93 0,-36 13,-65 39,-89 26,-23 56,-35 90,-35 33,0 62,11 88,32 25,21 38,52 38,92 0,39 -12,70 -37,92 -25,22 -54,33 -89,33z"/>
 </g>
</svg>
