<?xml version="1.0" encoding="UTF-8"?>
<!DOCTYPE svg PUBLIC "-//W3C//DTD SVG 1.1//EN" "http://www.w3.org/Graphics/SVG/1.1/DTD/svg11.dtd">
<!-- Creator: CorelDRAW X6 -->
<svg xmlns="http://www.w3.org/2000/svg" xml:space="preserve" width="15.0269mm" height="9.8779mm" version="1.1" style="shape-rendering:geometricPrecision; text-rendering:geometricPrecision; image-rendering:optimizeQuality; fill-rule:evenodd; clip-rule:evenodd"
viewBox="0 0 58 38"
 xmlns:xlink="http://www.w3.org/1999/xlink">
 <defs>
  <style type="text/css">
   <![CDATA[
    .fil0 {fill:#DFB276}
   ]]>
  </style>
 </defs>
 <g id="Layer_x0020_1">
  <metadata id="CorelCorpID_0Corel-Layer"/>
  <path class="fil0" d="M19 31l35 0c2,0 4,2 4,4l0 0c0,2 -2,4 -4,4l-35 0c-2,0 -4,-2 -4,-4l0 0c0,-2 2,-4 4,-4zm-15 -31l0 0c-2,0 -4,2 -4,4l0 0c0,2 2,4 4,4l0 0c2,0 4,-2 4,-4l0 0c0,-2 -2,-4 -4,-4zm15 0l35 0c2,0 4,2 4,4l0 0c0,2 -2,4 -4,4l-35 0c-2,0 -4,-2 -4,-4l0 0c0,-2 2,-4 4,-4zm-15 15l0 0c-2,0 -4,2 -4,4l0 0c0,2 2,4 4,4l0 0c2,0 4,-2 4,-4l0 0c0,-2 -2,-4 -4,-4zm15 0l35 0c2,0 4,2 4,4l0 0c0,2 -2,4 -4,4l-35 0c-2,0 -4,-2 -4,-4l0 0c0,-2 2,-4 4,-4zm-15 15l0 0c-2,0 -4,2 -4,4l0 0c0,2 2,4 4,4l0 0c2,0 4,-2 4,-4l0 0c0,-2 -2,-4 -4,-4z"/>
 </g>
</svg>
