<?xml version="1.0" encoding="UTF-8"?>
<!DOCTYPE svg PUBLIC "-//W3C//DTD SVG 1.1//EN" "http://www.w3.org/Graphics/SVG/1.1/DTD/svg11.dtd">
<!-- Creator: CorelDRAW X6 -->
<svg xmlns="http://www.w3.org/2000/svg" xml:space="preserve" width="252.135mm" height="109.742mm" version="1.1" style="shape-rendering:geometricPrecision; text-rendering:geometricPrecision; image-rendering:optimizeQuality; fill-rule:evenodd; clip-rule:evenodd"
viewBox="0 0 19321 8409"
 xmlns:xlink="http://www.w3.org/1999/xlink">
 <defs>
  <style type="text/css">
   <![CDATA[
    .fil0 {fill:none}
    .fil7 {fill:#E31E24}
    .fil4 {fill:#D7CE8B}
    .fil5 {fill:white}
    .fil1 {fill:#077134}
    .fil6 {fill:#1F1B20}
    .fil2 {fill:#3E1511;fill-rule:nonzero}
    .fil3 {fill:#621913;fill-rule:nonzero}
   ]]>
  </style>
 </defs>
 <g id="Layer_x0020_1">
  <metadata id="CorelCorpID_0Corel-Layer"/>
  <rect class="fil0" width="19321" height="8409"/>
  <g id="_845670032">
   <rect class="fil1" x="2426" y="480" width="14470" height="7449" rx="14858" ry="14858"/>
   <path class="fil2" d="M6150 154l7020 0c1114,0 2127,456 2861,1190 734,734 1190,1747 1190,2861 0,1114 -456,2127 -1190,2861 -734,734 -1747,1190 -2861,1190l-7020 0c-1114,0 -2127,-456 -2861,-1190 -734,-734 -1190,-1747 -1190,-2861 0,-1114 456,-2127 1190,-2861 734,-734 1747,-1190 2861,-1190zm7020 653l-7020 0c-934,0 -1784,382 -2400,998 -616,616 -998,1465 -998,2400 0,934 382,1784 998,2400 616,616 1465,998 2400,998l7020 0c934,0 1784,-382 2400,-998 616,-616 998,-1465 998,-2400 0,-934 -382,-1784 -998,-2400 -616,-616 -1465,-998 -2400,-998z"/>
   <path class="fil3" d="M6290 656l6741 0c976,0 1863,399 2506,1042 643,643 1042,1530 1042,2506 0,976 -399,1863 -1042,2506 -643,643 -1530,1042 -2506,1042l-6741 0c-976,0 -1863,-399 -2506,-1042 -643,-643 -1042,-1530 -1042,-2506 0,-976 399,-1863 1042,-2506 643,-643 1530,-1042 2506,-1042zm6741 163l-6741 0c-931,0 -1777,381 -2391,994 -614,614 -994,1460 -994,2391 0,931 381,1777 994,2391 614,614 1460,994 2391,994l6741 0c931,0 1777,-381 2391,-994 614,-614 994,-1460 994,-2391 0,-931 -381,-1777 -994,-2391 -614,-614 -1460,-994 -2391,-994z"/>
   <g>
    <rect class="fil4" x="9589" y="7590" width="144" height="666"/>
    <rect class="fil4" x="12354" y="7590" width="144" height="666"/>
    <rect class="fil4" x="6823" y="7590" width="144" height="666"/>
   </g>
   <g>
    <rect class="fil4" x="9589" y="154" width="144" height="666"/>
    <rect class="fil4" x="12354" y="154" width="144" height="666"/>
    <rect class="fil4" x="6823" y="154" width="144" height="666"/>
   </g>
   <path class="fil5" d="M4895 2717l1888 0c70,0 133,62 133,133l0 2707c0,70 -62,133 -133,133l-1888 0c-70,0 -133,-62 -133,-133l0 -2707c0,-70 62,-133 133,-133z"/>
   <path class="fil5" d="M7443 2720l1888 0c70,0 133,62 133,133l0 2707c0,70 -62,133 -133,133l-1888 0c-70,0 -133,-62 -133,-133l0 -2707c0,-70 62,-133 133,-133z"/>
   <path class="fil5" d="M9990 2717l1888 0c70,0 133,62 133,133l0 2707c0,70 -62,133 -133,133l-1888 0c-70,0 -133,-62 -133,-133l0 -2707c0,-70 62,-133 133,-133z"/>
   <path class="fil5" d="M12538 2717l1888 0c70,0 133,62 133,133l0 2707c0,70 -62,133 -133,133l-1888 0c-70,0 -133,-62 -133,-133l0 -2707c0,-70 62,-133 133,-133z"/>
   <path class="fil6" d="M13183 5039l0 97c24,0 606,0 654,0l0 -97c-97,-24 -170,-73 -218,-145 -48,-73 -73,-194 -48,-315 73,121 218,194 339,194 145,0 315,-48 388,-170 145,-194 121,-412 -24,-606 -24,-24 -48,-48 -73,-73 0,0 -48,-73 -73,-73 0,-24 0,-24 -24,-24l-24 -24c-24,-24 -170,-170 -218,-218l-194 -170c-24,-24 -24,-24 -48,-24l-121 -97c-24,0 -24,-24 -48,-24 -24,24 -24,24 -48,48l-121 97c-24,24 -73,48 -73,73 -97,97 -194,170 -315,291 -24,24 -24,24 -48,48 -24,24 -121,145 -145,170l-24 24c-194,267 -97,557 121,678 145,97 363,73 509,-24 73,-48 73,-73 97,-97 0,0 0,0 0,0 0,121 0,218 -48,315 -48,73 -97,121 -218,145l48 0z"/>
   <path class="fil7" d="M10934 3209c267,339 557,678 872,993 -315,315 -606,654 -872,993 -267,-363 -557,-703 -872,-993 315,-315 606,-654 872,-993z"/>
   <path class="fil7" d="M8415 5044c0,0 24,-24 24,-24l194 -170c121,-97 242,-218 363,-339l121 -121c97,-121 194,-218 267,-388 97,-291 -121,-557 -339,-630 -145,-48 -291,-24 -412,48 -73,48 -145,121 -194,194 -24,24 -24,73 -48,97 0,-24 0,-24 -24,-48 -48,-97 -121,-194 -218,-242 -242,-145 -557,-73 -703,170 -121,194 -97,388 24,582 97,145 218,291 363,412 24,24 73,73 121,121l339 315c24,24 48,48 73,48l48 -24z"/>
   <path class="fil6" d="M5449 5230l711 0 0 -105c-105,-26 -184,-79 -211,-158 -79,-105 -53,-184 -53,-342 26,26 53,79 158,158 237,132 526,53 658,-184 105,-158 79,-369 0,-526 -79,-105 -211,-237 -421,-237 26,-105 26,-158 26,-263 -53,-211 -237,-395 -474,-395 -263,0 -448,184 -474,395 -26,105 0,158 26,263 -184,26 -316,79 -421,237 -105,158 -105,369 0,526 184,316 632,316 842,26 26,237 -53,421 -290,500l0 105 -79 0z"/>
  </g>
 </g>
</svg>
