<?xml version="1.0" encoding="UTF-8"?>
<!DOCTYPE svg PUBLIC "-//W3C//DTD SVG 1.1//EN" "http://www.w3.org/Graphics/SVG/1.1/DTD/svg11.dtd">
<!-- Creator: CorelDRAW X6 -->
<svg xmlns="http://www.w3.org/2000/svg" xml:space="preserve" width="206.49mm" height="109.73mm" version="1.1" style="shape-rendering:geometricPrecision; text-rendering:geometricPrecision; image-rendering:optimizeQuality; fill-rule:evenodd; clip-rule:evenodd"
viewBox="0 0 16703 8876"
 xmlns:xlink="http://www.w3.org/1999/xlink">
 <defs>
  <style type="text/css">
   <![CDATA[
    .fil0 {fill:none}
    .fil4 {fill:#482309}
    .fil5 {fill:#743A13}
    .fil3 {fill:#936C1C}
    .fil6 {fill:#BA3B2D}
    .fil9 {fill:#BB942A}
    .fil10 {fill:#C86C1A}
    .fil8 {fill:#E83C3C}
    .fil7 {fill:#ED8726}
    .fil1 {fill:#F6B432}
    .fil11 {fill:#FBE699}
    .fil2 {fill:#FCE14E}
   ]]>
  </style>
 </defs>
 <g id="Layer_x0020_1">
  <metadata id="CorelCorpID_0Corel-Layer"/>
  <rect class="fil0" width="16703" height="8876"/>
  <g id="_845671208">
   <path class="fil1" d="M7791 6261c148,-42 45,-22 98,9 113,302 -238,654 -540,548 213,-158 399,-217 442,-557zm122 -183c28,-156 48,-134 78,-285 51,-255 19,-155 126,-177 39,94 62,195 12,307 -45,101 -98,108 -215,155zm-385 -895c101,34 105,9 176,97 74,92 -47,103 103,129 212,10 32,-7 78,-24 129,-49 397,8 453,57 -108,57 -227,46 -366,18 44,160 11,187 11,186 0,-4 -12,24 -18,36 -62,175 -50,132 -137,259 -132,192 -46,115 -37,320l-103 161c-76,92 -13,32 -116,89 -93,51 15,-47 -87,39 77,21 -128,114 -190,140 -178,75 -239,46 -230,272 89,47 123,83 220,133 84,-49 12,-33 103,-16l422 158c178,48 445,128 602,27 237,-154 504,-579 589,-994 -546,73 -589,77 -1062,-68 434,29 605,58 1077,-2 84,-193 53,-385 40,-617 -164,-36 -364,9 -544,10l134 -84c160,-71 208,-9 342,-178 -106,-83 194,-67 -402,2 -176,21 -322,19 -496,-12 129,-119 536,-290 733,-493 368,-379 639,-678 895,-1209 349,-724 651,-1921 520,-2827 -367,-13 -881,93 -1300,104 -415,11 -987,-34 -1367,5 -233,846 -362,2381 -177,3278 55,269 284,728 290,879l-155 125z"/>
   <path class="fil2" d="M4807 279c655,-85 602,322 1049,434 82,20 102,-2 171,20 -40,84 -90,50 -211,62 52,46 -14,30 81,49 72,14 48,5 120,0l0 163c170,-67 333,-36 522,-42 73,855 -92,1145 152,2360 97,484 480,1595 758,1744 -43,28 16,18 -66,12 63,87 16,58 144,105l155 -125c-6,-151 -234,-610 -290,-879 -184,-897 -56,-2432 177,-3278 381,-39 952,5 1367,-5 419,-11 934,-117 1300,-104l1 -53c-263,112 -230,-22 -561,-39 -177,-9 -453,-6 -586,-73 395,-6 760,-130 1144,-104 201,3 285,-91 472,-103 -1,-186 -118,-231 -287,-218l-86 -2c147,51 124,4 174,143 -220,155 -819,217 -1112,198 -202,75 -809,47 -1068,46l-1212 -42c-224,-15 -325,-28 -457,-150l-100 -94c-4,-4 -13,-13 -16,-17 -3,-3 -9,-13 -11,-16 -70,-106 -71,72 -9,-45 75,-96 313,-6 502,-156 -222,12 -464,46 -647,102 -274,84 -304,94 -327,415 -286,-19 -427,-124 -611,-256 -157,-113 -458,-228 -633,-49z"/>
   <path class="fil3" d="M10236 523l3 216 -1 53c131,906 -171,2103 -520,2827 -256,531 -527,830 -895,1209 -197,203 -605,375 -733,493 174,31 320,32 496,12 596,-70 296,-85 402,-2 -135,169 -183,106 -342,178l-134 84c179,-1 380,-46 544,-10 13,232 44,424 -40,617 9,9 36,49 41,55 4,5 15,21 19,26 3,5 11,17 18,25 -132,617 -328,781 -693,1090 303,19 672,-31 940,-104 216,-59 563,-217 680,-362l-84 -204c-184,10 -384,-102 -431,-222l-104 -94c-243,-178 -11,-241 -133,-433 -95,-150 -176,-187 -161,-451 143,-88 117,-29 231,-156 -17,-109 -45,-116 -103,-199 347,-107 635,-414 808,-645 225,-299 310,-562 460,-952l156 -596c-14,-211 70,-687 83,-960 17,-343 1,-675 -2,-1016 -2,-4 -90,-203 -90,-203 -32,-118 -42,-115 29,-227l28 -152c-186,12 -270,106 -472,103z"/>
   <path class="fil1" d="M4807 279c-769,116 -227,2412 189,2558 19,-37 50,76 -57,-57 -255,-317 -327,-742 -391,-1152 -71,-455 -183,-1246 403,-1305l-63 43c-9,7 -20,13 -29,20 -9,7 -18,12 -28,19 -37,28 -58,43 -86,75 -375,417 -81,1986 529,2466l517 266c227,79 335,27 308,297 -84,65 -58,64 -220,74l-73 -225c153,111 9,90 141,111 90,15 49,-19 30,-57l-784 -384c94,229 430,161 499,400 96,333 296,332 558,105 140,546 670,1479 1137,1544 82,6 24,17 66,-12 -278,-148 -661,-1260 -758,-1744 -244,-1215 -79,-1505 -152,-2360 -189,6 -351,-26 -522,42 -75,1091 60,1281 121,2186 -751,-264 -1156,-484 -1354,-1423 -58,-276 -158,-1061 38,-1208 365,-275 602,259 993,233 121,-12 170,22 211,-62 -69,-21 -89,1 -171,-20 -448,-112 -394,-519 -1049,-434z"/>
   <path class="fil4" d="M7936 7720l52 209 428 18 330 -1c547,-12 774,-158 798,193 31,456 -29,517 -333,545 -374,35 -762,34 -1145,16l-7 116 -175 23c681,73 1630,42 2292,-124 1177,-297 837,-479 748,-1542 -101,46 -94,124 -246,212 -642,376 -2060,415 -2740,336z"/>
   <path class="fil5" d="M7883 8839l175 -23 7 -116 -136 -34c-90,12 -43,24 -157,5 -167,-28 16,13 -60,-17 -84,-33 -34,-15 -68,-49 -143,-88 -116,-351 -99,-505 27,-244 226,-197 443,-171l-52 -209 -140 -30c-306,11 -621,-67 -908,-158 -356,-113 -401,-165 -613,-403 -24,252 -70,525 -111,774 -58,349 -27,437 235,586 357,204 1002,325 1483,349z"/>
   <path class="fil6" d="M8400 7395c-353,-20 -571,-43 -891,-168 -49,-19 -94,-35 -135,-60 -7,-4 -18,-11 -24,-16 -6,-4 -18,-14 -23,-17l-43 -38c-97,-50 -131,-86 -220,-133 71,202 309,514 516,568l-46 58 243 34c587,36 1173,62 1757,-18 253,-34 557,-88 776,-166 243,-87 486,-170 487,-417 -52,-153 -58,-136 -215,-223 -212,-9 -367,-75 -645,-74l84 204c-117,144 -464,302 -680,362 -268,73 -637,124 -940,104z"/>
   <path class="fil1" d="M11276 308l123 206c3,-6 10,22 15,33 225,-139 490,-59 543,161 40,165 32,587 19,766 -40,580 -183,781 -385,1172 184,411 -755,584 -883,777 40,106 46,126 179,142 92,-75 71,-13 74,-169 -53,84 -50,86 -118,84 -8,0 -24,-7 -31,-8 -8,-1 -23,-5 -33,-11 72,-151 63,-101 349,-235 158,-74 242,-177 415,-168 629,-219 965,-2204 577,-2659 -192,-226 -572,-281 -843,-91z"/>
   <path class="fil7" d="M7115 545l1212 42c144,-112 390,-147 565,-212 100,-37 186,-72 272,-116 161,-81 129,-103 269,-172l176 9 -185 -8c-206,50 -1005,-15 -1308,-4 -398,16 -855,26 -1229,80 123,84 256,203 227,379z"/>
   <path class="fil1" d="M8746 7946c-125,192 -364,498 -447,703l-370 18 136 34c383,18 771,19 1145,-16 304,-28 365,-89 333,-545 -24,-351 -251,-205 -798,-193z"/>
   <path class="fil8" d="M7534 7589l46 -58c-207,-55 -445,-366 -516,-568 -9,-226 52,-197 230,-272 63,-26 267,-119 190,-140 -324,26 -1126,211 -1103,528 22,302 820,470 1151,511z"/>
   <path class="fil2" d="M4996 2838c76,142 52,115 195,192l784 384c19,38 60,72 -30,57 -131,-21 12,0 -141,-111l73 225c162,-10 136,-9 220,-74 27,-270 -81,-219 -308,-297l-517 -266c-610,-480 -904,-2049 -529,-2466 29,-32 49,-47 86,-75 9,-7 18,-12 28,-19 10,-7 20,-14 29,-20l63 -43c-586,59 -474,850 -403,1305 64,409 136,835 391,1152 107,133 76,19 57,57z"/>
   <path class="fil1" d="M7644 8606l28 -160c201,53 150,136 -28,160zm132 -553c-2,23 -48,54 -75,71 -44,-60 -50,-62 -13,-148 49,18 98,-69 88,77zm-132 553c34,33 -16,15 68,49 76,30 -107,-11 60,17 114,19 67,7 157,-5 26,-189 144,-218 251,-348 89,-108 166,-263 236,-371l-428 -18c-217,-26 -416,-73 -443,171 -17,154 -43,417 99,505z"/>
   <path class="fil3" d="M9396 541c293,19 892,-43 1112,-198 -50,-139 -28,-92 -174,-143l-723 -103 -176 -9c15,248 -178,353 -368,438l330 15z"/>
   <path class="fil9" d="M10725 3177c-67,147 -63,99 -159,206l9 180c157,227 556,226 516,-208 188,-67 361,-166 451,-298 -173,-8 -257,94 -415,168 -286,134 -277,84 -349,235 10,6 26,10 33,11 7,1 23,8 31,8 68,2 66,0 118,-84 -3,156 18,94 -74,169 -132,-16 -139,-36 -179,-142 128,-194 1067,-367 883,-777 -307,282 -369,396 -867,530z"/>
   <path class="fil1" d="M7025 67c-189,150 -427,60 -502,156 -62,117 -61,-61 9,45 2,3 9,13 11,16 3,4 12,13 16,17l100 94c132,122 233,135 457,150 29,-175 -104,-295 -227,-379 374,-54 831,-65 1229,-80 303,-12 1102,53 1308,4l0 -65c-284,25 -878,-27 -1231,-24 -402,3 -779,40 -1170,67z"/>
   <path class="fil9" d="M7776 7623l84 45 -64 22 140 30c680,79 2098,40 2740,-336 152,-89 144,-167 246,-212l-30 -107c-71,-30 -47,-6 -96,-42 -1,247 -244,330 -487,417 -219,78 -523,132 -776,166 -584,80 -1170,54 -1757,18z"/>
   <path class="fil9" d="M7284 7096l43 38c5,3 16,13 23,17 6,4 17,11 24,16 41,24 86,41 135,60 320,126 538,148 891,168 365,-308 561,-472 693,-1090 -7,-7 -15,-20 -18,-25 -4,-5 -15,-21 -19,-26 -4,-6 -32,-46 -41,-55 -472,61 -643,31 -1077,2 473,145 516,141 1062,68 -85,415 -352,840 -589,994 -157,102 -423,21 -602,-27l-422 -158c-91,-16 -19,-33 -103,16z"/>
   <path class="fil2" d="M6275 7130c212,238 257,290 613,403 287,91 602,168 908,158l64 -22 -84 -45 -243 -34c-332,-41 -1129,-208 -1151,-511 -23,-317 778,-502 1103,-528 102,-86 -6,12 87,-39 104,-57 40,3 116,-89 -268,6 -668,97 -908,187 -261,98 -480,201 -505,520z"/>
   <path class="fil2" d="M7929 8666l370 -18c83,-204 322,-510 447,-703l-330 1c-70,108 -146,263 -236,371 -107,130 -225,159 -251,348z"/>
   <path class="fil9" d="M10680 573c-71,112 -61,109 -29,227 0,0 88,200 90,203l14 -118c321,-98 451,-161 660,-337 -5,-11 -12,-40 -15,-33l-123 -206c-173,111 -308,282 -597,264z"/>
   <path class="fil10" d="M8328 587c259,1 866,28 1068,-46l-330 -15c190,-85 383,-189 368,-438 -140,68 -108,90 -269,172 -87,44 -172,79 -272,116 -175,65 -421,100 -565,212z"/>
   <path class="fil1" d="M10239 739l-3 -216c-384,-26 -749,99 -1144,104 133,67 410,64 586,73 331,17 298,151 561,39z"/>
   <path class="fil2" d="M9505 6504c377,96 775,94 1076,296 158,87 164,69 215,223 49,36 25,13 96,42l-5 -144c-247,-216 -277,-248 -641,-363 -271,-85 -534,-121 -844,-147l104 94z"/>
   <path class="fil2" d="M7791 6261c-43,341 -229,400 -442,557 302,105 653,-246 540,-548 -53,-31 50,-51 -98,-9z"/>
   <path class="fil8" d="M9936 6726c278,-1 433,65 645,74 -301,-202 -699,-200 -1076,-296 47,120 247,232 431,222z"/>
   <path class="fil11" d="M9610 97l723 103 86 2c-65,-67 -47,-73 -197,-101l-798 -77 0 65 185 8z"/>
   <path class="fil2" d="M7913 6079c117,-47 170,-54 215,-155 50,-112 28,-213 -12,-307 -106,22 -75,-78 -126,177 -30,151 -50,129 -78,285z"/>
   <path class="fil2" d="M7807 5410c86,102 -4,49 159,108l-1 165c6,-12 17,-40 18,-36 0,1 33,-26 -11,-186 140,28 258,39 366,-18 -56,-49 -324,-106 -453,-57 -46,17 134,34 -78,24z"/>
   <path class="fil11" d="M10503 3574l72 -11 -9 -180c97,-108 92,-59 159,-206 -104,-5 -19,36 -76,-27l11 -171 -156 596z"/>
   <path class="fil2" d="M7644 8606c178,-24 229,-107 28,-160l-28 160z"/>
   <path class="fil2" d="M7701 8123c27,-18 74,-48 75,-71 10,-146 -39,-59 -88,-77 -37,86 -31,88 13,148z"/>
  </g>
 </g>
</svg>
