<svg width="89" height="89" viewBox="0 0 89 89" fill="none" xmlns="http://www.w3.org/2000/svg">
<path opacity="0.6" d="M88.893 44.3929C88.893 68.9104 69.0176 88.7858 44.5001 88.7858C19.9826 88.7858 0.107178 68.9104 0.107178 44.3929C0.107178 19.8754 19.9826 0 44.5001 0C69.0176 0 88.893 19.8754 88.893 44.3929Z" fill="#232323"/>
<circle cx="44.907" cy="44.8003" r="34.9214" fill="url(#paint0_radial_5242_76081)"/>
<path d="M60.3234 44.3309C60.5833 44.5167 60.5833 44.903 60.3234 45.0887L39.1272 60.2401C38.8189 60.4605 38.3905 60.2401 38.3905 59.8612L38.3905 29.5584C38.3905 29.1795 38.8189 28.9591 39.1272 29.1795L60.3234 44.3309Z" fill="#989898"/>
<path d="M59.3234 43.3309C59.5833 43.5167 59.5833 43.903 59.3234 44.0887L38.1272 59.2401C37.8189 59.4605 37.3905 59.2401 37.3905 58.8612L37.3905 28.5584C37.3905 28.1795 37.8189 27.9591 38.1272 28.1795L59.3234 43.3309Z" fill="#272525"/>
<defs>
<radialGradient id="paint0_radial_5242_76081" cx="0" cy="0" r="1" gradientUnits="userSpaceOnUse" gradientTransform="translate(44.907 9.87891) rotate(90) scale(69.8429)">
<stop stop-color="#B7B7B7"/>
<stop offset="1" stop-color="#626262"/>
</radialGradient>
</defs>
</svg>
