<?xml version="1.0" encoding="UTF-8"?>
<!DOCTYPE svg PUBLIC "-//W3C//DTD SVG 1.1//EN" "http://www.w3.org/Graphics/SVG/1.1/DTD/svg11.dtd">
<!-- Creator: CorelDRAW X6 -->
<svg xmlns="http://www.w3.org/2000/svg" xml:space="preserve" width="60.6774mm" height="60.6773mm" version="1.1" style="shape-rendering:geometricPrecision; text-rendering:geometricPrecision; image-rendering:optimizeQuality; fill-rule:evenodd; clip-rule:evenodd"
viewBox="0 0 1128 1128"
 xmlns:xlink="http://www.w3.org/1999/xlink">
 <defs>
  <style type="text/css">
   <![CDATA[
    .fil2 {fill:black}
    .fil1 {fill:#4F5C6F}
    .fil0 {fill:#606D84}
   ]]>
  </style>
   <mask id="id0">
  <linearGradient id="id1" gradientUnits="userSpaceOnUse" x1="318.338" y1="253.731" x2="809.192" y2="873.799">
   <stop offset="0" style="stop-opacity:1; stop-color:white"/>
   <stop offset="1" style="stop-opacity:0; stop-color:white"/>
  </linearGradient>
    <rect style="fill:url(#id1)" x="93" y="93" width="942" height="942"/>
   </mask>
 </defs>
 <g id="Layer_x0020_1">
  <metadata id="CorelCorpID_0Corel-Layer"/>
  <circle class="fil0" cx="564" cy="564" r="564"/>
  <circle class="fil1" cx="564" cy="564" r="469"/>
  <path class="fil2" style="mask:url(#id0)" d="M564 95c259,0 469,210 469,469 0,259 -210,469 -469,469 -259,0 -469,-210 -469,-469 0,-259 210,-469 469,-469z"/>
  <path class="fil0" d="M179 895l0 13c5,8 0,10 17,32 32,40 119,68 169,78 16,3 72,15 85,14 1,1 -1,0 2,1 1,0 2,0 3,1 3,0 5,0 7,0 17,0 39,3 58,5 20,1 40,2 61,2 21,0 41,-1 62,-2 19,-1 39,-4 57,-5 4,0 10,0 13,-2 15,1 67,-10 83,-14 54,-13 149,-43 177,-94 4,-7 4,-12 7,-19l0 -15 -12 -45c-15,-52 -25,-64 -77,-93 -52,-30 -99,-49 -156,-70 -8,-3 -6,0 -16,9 -39,35 -80,60 -138,60 -53,0 -87,-14 -125,-44 -4,-3 -29,-26 -30,-26 -12,3 -30,11 -42,16 -39,15 -83,34 -118,55 -57,34 -60,41 -77,96l-11 45zm592 -400c0,-1 0,0 1,-2 0,-1 0,-2 0,-2 0,-2 0,-4 0,-6 1,-37 2,-60 -9,-94 -8,-24 -24,-52 -37,-67 -33,-39 -84,-67 -139,-70 -69,-4 -129,36 -159,76 -4,5 -7,10 -11,15 -56,90 -33,201 23,279 22,31 68,80 126,83 36,2 60,-3 85,-19 44,-28 74,-64 96,-113 8,-17 23,-59 24,-80z"/>
 </g>
</svg>
