<?xml version="1.0" encoding="UTF-8"?>
<!DOCTYPE svg PUBLIC "-//W3C//DTD SVG 1.1//EN" "http://www.w3.org/Graphics/SVG/1.1/DTD/svg11.dtd">
<!-- Creator: CorelDRAW X6 -->
<svg xmlns="http://www.w3.org/2000/svg" xml:space="preserve" width="172.854mm" height="166.91mm" version="1.1" style="shape-rendering:geometricPrecision; text-rendering:geometricPrecision; image-rendering:optimizeQuality; fill-rule:evenodd; clip-rule:evenodd"
viewBox="0 0 26375 25468"
 xmlns:xlink="http://www.w3.org/1999/xlink">
 <defs>
  <style type="text/css">
   <![CDATA[
    .fil0 {fill:white}
   ]]>
  </style>
 </defs>
 <g id="Layer_x0020_1">
  <metadata id="CorelCorpID_0Corel-Layer"/>
  <g id="_557670320">
   <path class="fil0" d="M5029 6053l316 -708c532,71 1006,177 1563,223 552,45 1173,-7 1691,55l-383 783c-939,162 -2086,-99 -3018,-163l-169 -191zm4368 17284c-431,30 -874,46 -1325,46 -4420,0 -8004,-1488 -8004,-3323 0,-150 24,-298 71,-442 521,1626 3874,2881 7933,2881 462,0 914,-16 1354,-48l-29 887zm58 -1746c-449,32 -911,50 -1383,50 -4420,0 -8004,-1488 -8004,-3323 0,-150 24,-298 71,-442 521,1626 3874,2881 7933,2881 482,0 954,-18 1412,-52l-29 887zm58 -1747c-467,35 -949,54 -1440,54 -4420,0 -8004,-1488 -8004,-3323 0,-150 24,-298 71,-442 521,1626 3874,2881 7933,2881 502,0 993,-19 1470,-56l-29 887zm58 -1747c-485,38 -986,58 -1498,58 -4420,0 -8004,-1488 -8004,-3323 0,-150 24,-298 71,-442 521,1626 3874,2881 7933,2881 522,0 1033,-21 1527,-61l-29 887zm58 -1747c-503,41 -1023,63 -1556,63 -4420,0 -8004,-1488 -8004,-3323 0,-150 24,-298 71,-442 521,1626 3874,2881 7933,2881 624,0 1232,-30 1815,-86 -94,194 -178,399 -250,616l-10 292zm6377 -5445c46,145 71,292 71,442 0,255 -69,502 -200,741 -324,31 -668,76 -1022,140 595,-393 997,-842 1151,-1323zm-5535 3614c-757,98 -1562,152 -2398,152 -4420,0 -8004,-1488 -8004,-3323 0,-150 24,-298 71,-442 521,1626 3874,2881 7933,2881 1291,0 2510,-127 3589,-352 -441,297 -847,654 -1192,1085zm5535 -5356c46,145 71,292 71,442 0,1835 -3583,3323 -8004,3323 -4420,0 -8004,-1488 -8004,-3323 0,-150 24,-298 71,-442 521,1626 3874,2881 7933,2881 4059,0 7412,-1254 7933,-2881zm0 -1742c46,145 71,292 71,442 0,1835 -3583,3323 -8004,3323 -4420,0 -8004,-1488 -8004,-3323 0,-150 24,-298 71,-442 521,1626 3874,2881 7933,2881 4059,0 7412,-1254 7933,-2881zm0 -1742c46,145 71,292 71,442 0,1835 -3583,3323 -8004,3323 -4420,0 -8004,-1488 -8004,-3323 0,-150 24,-298 71,-442 521,1626 3874,2881 7933,2881 4059,0 7412,-1254 7933,-2881zm-9156 -1406c66,109 51,65 42,258 139,151 443,176 675,156 349,-30 251,9 366,-333 686,-13 1701,-29 1815,-726 -350,-617 -1603,-419 -1861,-907 1405,-282 1559,587 2154,-236 -19,-12 -45,-24 -59,-30l-183 -76c-67,-21 -135,-33 -205,-46 -158,-29 -320,-45 -515,-61l-46 -286c-1402,-172 -371,164 -1383,255 -1312,118 -1814,754 -413,1138 731,200 830,69 1001,438 -808,160 -1346,-87 -2075,-177l-386 397c236,162 709,218 1072,236zm-5972 -403c30,-205 -5,-114 83,-248l1716 -234c108,825 549,893 906,1309 -2855,472 -1609,116 -2497,-282l-208 -545zm-203 1703c189,400 1024,839 1562,1094 3211,1520 10014,1428 12915,-923 526,-427 841,-920 850,-1789 11,-1049 -122,-1504 -694,-2029 -1373,-1258 -4024,-1780 -5943,-1893 -2415,-143 -5629,169 -7756,1400 -329,190 -488,359 -749,532l-441 481c-491,635 -517,1972 -249,2211 121,343 243,663 504,916zm284 -557c466,-24 244,122 594,-35l-57 354c-353,-182 -226,248 -332,-248l-122 240 -82 -311zm9969 245c484,-321 1143,-376 1748,-851 381,-298 361,-227 898,-22 443,170 639,161 852,397 -254,122 -494,333 -804,491 -912,465 -1155,602 -1837,337 -270,-105 -652,-215 -857,-353zm-3585 -3861c4083,-335 7148,1750 4073,3222 -729,349 -1704,557 -2632,630 -6052,477 -7544,-3351 -1440,-3852zm5031 516c524,-74 1403,-360 1838,-201 253,93 856,637 971,1217l-1739 261c-212,-260 -159,-445 -449,-750 -224,-236 -413,-323 -621,-527zm-10582 -19c266,-308 1141,-676 1633,-856 584,-213 1308,29 1831,358 -709,272 -1196,355 -1759,781 -410,310 -329,258 -836,64 -295,-113 -601,-196 -870,-347zm5709 -825c75,-273 208,-670 471,-775 1088,-6 1923,107 2990,229l-376 754c-1065,-50 -1884,-226 -3084,-208z"/>
   <g>
    <path class="fil0" d="M15497 18784l-225 -36 56 -155 316 -708c532,71 1006,177 1563,223 552,45 1173,-7 1691,55l-383 783c-939,162 -2086,-99 -3018,-163zm-4321 -2375c30,-205 -5,-114 83,-248l1716 -234c108,825 549,893 906,1309 -2855,472 -1609,116 -2497,-282l-208 -545zm-203 1703c189,400 1024,839 1562,1094 3211,1520 10014,1428 12915,-923 526,-427 841,-920 850,-1789 11,-1049 -122,-1504 -694,-2029 -1373,-1258 -4024,-1780 -5943,-1893 -2415,-143 -5629,169 -7756,1400 -329,190 -488,359 -749,532l-441 481c-491,635 -517,1972 -249,2211 121,343 243,663 504,916zm284 -557c466,-24 244,122 594,-35l-57 354c-353,-182 -226,248 -332,-248l-122 240 -82 -311zm9969 245c484,-321 1143,-376 1748,-851 381,-298 361,-227 898,-22 443,170 639,161 852,397 -254,122 -494,332 -804,491 -912,465 -1155,602 -1837,337 -270,-105 -652,-215 -857,-353zm-3585 -3861c4083,-335 7148,1750 4073,3222 -729,349 -1704,557 -2632,630 -6052,477 -7544,-3351 -1440,-3852zm5031 516c524,-74 1403,-360 1838,-201 253,93 856,637 971,1217l-1739 261c-212,-260 -159,-445 -449,-750 -224,-236 -413,-323 -621,-527zm-10582 -19c266,-308 1141,-676 1633,-856 584,-213 1308,29 1831,358 -709,272 -1196,355 -1759,781 -410,310 -329,258 -836,64 -295,-113 -601,-196 -870,-347zm5709 -825c75,-273 208,-670 471,-775 1088,-6 1923,107 2990,229l-376 754c-1065,-50 -1884,-226 -3084,-208z"/>
    <path class="fil0" d="M17148 16811c345,-9 66,-22 177,90l-135 168c139,151 443,176 675,156 349,-30 251,9 366,-333 686,-13 1701,-29 1815,-726 -350,-617 -1603,-419 -1861,-907 1405,-282 1559,587 2154,-236 -19,-12 -45,-24 -59,-30l-183 -76c-67,-21 -135,-33 -205,-46 -158,-29 -320,-45 -515,-61l-46 -286c-1402,-172 -371,164 -1383,255 -1312,118 -1814,754 -413,1138 731,200 830,69 1001,438 -808,160 -1346,-87 -2075,-177l-386 397c236,162 709,218 1072,236z"/>
    <path class="fil0" d="M26304 18217c46,145 71,292 71,442 0,1835 -3583,3323 -8004,3323 -4420,0 -8004,-1488 -8004,-3323 0,-150 24,-298 71,-442 521,1626 3874,2881 7933,2881 4059,0 7412,-1255 7933,-2881z"/>
    <path class="fil0" d="M26304 19960c46,145 71,292 71,442 0,1835 -3583,3323 -8004,3323 -4420,0 -8004,-1488 -8004,-3323 0,-150 24,-298 71,-442 521,1626 3874,2881 7933,2881 4059,0 7412,-1255 7933,-2881z"/>
    <path class="fil0" d="M26304 21702c46,145 71,292 71,442 0,1835 -3583,3323 -8004,3323 -4420,0 -8004,-1488 -8004,-3323 0,-150 24,-298 71,-442 521,1626 3874,2881 7933,2881 4059,0 7412,-1255 7933,-2881z"/>
   </g>
  </g>
 </g>
</svg>
