<svg xmlns="http://www.w3.org/2000/svg" xmlns:xlink="http://www.w3.org/1999/xlink" width="22" height="22" viewBox="0 0 22 22">
  <defs>
    <clipPath id="clip-path">
      <rect id="Rectangle_83" data-name="Rectangle 83" width="22" height="22" transform="translate(0 0)" fill="#e1dcdc"/>
    </clipPath>
  </defs>
  <g id="Group_254" data-name="Group 254" transform="translate(0 0)">
    <g id="Group_250" data-name="Group 250" transform="translate(0 0)" clip-path="url(#clip-path)">
      <path id="Path_228" data-name="Path 228" d="M26.754,17.836a7.088,7.088,0,1,0,.331,2.139,7.07,7.07,0,0,0-.331-2.139m-.888,4.355a6.3,6.3,0,0,1-12.188-2.216,6.214,6.214,0,0,1,.375-2.144,6.282,6.282,0,0,1,2.826-3.339,6.206,6.206,0,0,1,2.086-.729,6.293,6.293,0,0,1,7.01,4.319,6.268,6.268,0,0,1-.11,4.109" transform="translate(-8.974 -8.976)" fill="#e1dcdc"/>
      <path id="Path_229" data-name="Path 229" d="M21.5,7.746l-.389.122.381-.149-.01-.031a10.807,10.807,0,0,0-1.152-2.5A10.92,10.92,0,0,0,11,0a11.1,11.1,0,0,0-5.4,1.419A11.018,11.018,0,0,0,1.661,5.182a10.634,10.634,0,0,0-1,2.072C.6,7.419.54,7.583.49,7.747A10.862,10.862,0,0,0,0,11c0,.154,0,.3.009.457a10.719,10.719,0,0,0,.154,1.428A10.557,10.557,0,0,0,.7,14.849a10.8,10.8,0,0,0,1.67,2.958c.05.067.1.134.154.194a10.794,10.794,0,0,0,1.4,1.41,10.988,10.988,0,0,0,15.71-1.591,10.872,10.872,0,0,0,1.667-2.952h0l.007-.02a10.755,10.755,0,0,0,.686-3.383C22,11.311,22,11.154,22,11a10.8,10.8,0,0,0-.5-3.251m-.976,6.84a10.056,10.056,0,0,1-1.411,2.549l-.855-.855a.346.346,0,0,0-.489,0l-1.4,1.4a.346.346,0,0,0,0,.49l.872.872a10.2,10.2,0,0,1-2.769,1.531,10.068,10.068,0,0,1-2.187.531V19.841a.346.346,0,0,0-.346-.346H9.964a.346.346,0,0,0-.346.346v1.248a10.159,10.159,0,0,1-4.9-2.08l.873-.873a.346.346,0,0,0,0-.489l-1.4-1.4a.346.346,0,0,0-.489,0l-.848.848a10,10,0,0,1-1.4-2.534,9.738,9.738,0,0,1-.493-1.818c-.03-.167-.05-.335-.071-.5H2.063A.346.346,0,0,0,2.41,11.9V9.917a.346.346,0,0,0-.346-.346H.918A9.923,9.923,0,0,1,1.27,7.987c.046-.153.1-.3.154-.456a9.823,9.823,0,0,1,.93-1.916,10.08,10.08,0,0,1,.605-.86l.777.777a.346.346,0,0,0,.489,0l1.4-1.4a.346.346,0,0,0,0-.489l-.765-.766A10.125,10.125,0,0,1,6,2.13,9.956,9.956,0,0,1,9.371.95c.081-.014.164-.019.246-.031V1.971a.346.346,0,0,0,.346.346h1.978a.346.346,0,0,0,.346-.346V.9a10.089,10.089,0,0,1,4.818,1.948l-.767.766a.346.346,0,0,0,0,.489l1.4,1.4a.346.346,0,0,0,.49,0l.78-.78a10.305,10.305,0,0,1,.632.9A10.029,10.029,0,0,1,20.715,7.96l.01.031A9.854,9.854,0,0,1,21.08,9.57H19.934a.346.346,0,0,0-.346.346V11.9a.346.346,0,0,0,.346.346h1.173a9.919,9.919,0,0,1-.57,2.321h0l-.009.024" transform="translate(0 0)" fill="#e1dcdc"/>
      <path id="Path_230" data-name="Path 230" d="M12.882,20.78a.4.4,0,0,0,.155-.031l.008,0a.416.416,0,0,0,.117-.079l.015-.015a.413.413,0,0,0,.075-.112l.008-.017a.413.413,0,0,0,.03-.149v-.006a.409.409,0,1,0-.408.411" transform="translate(-8.701 -13.927)" fill="#e1dcdc"/>
      <path id="Path_231" data-name="Path 231" d="M58,20.78a.413.413,0,0,0,.411-.411.4.4,0,0,0-.031-.154l0-.008a.407.407,0,0,0-.078-.115l-.016-.016A.4.4,0,0,0,58.17,20l-.019-.009a.416.416,0,0,0-.148-.03H58a.409.409,0,0,0,0,.819" transform="translate(-40.181 -13.927)" fill="#e1dcdc"/>
      <path id="Path_232" data-name="Path 232" d="M30.117,22.953l-.225-.021v-3.2a1.811,1.811,0,0,1,1.667,1.357.408.408,0,0,0,.805-.134,2.628,2.628,0,0,0-2.435-2.039l-.038,0v-.755a.408.408,0,0,0-.816,0v.754l-.063,0a2.562,2.562,0,0,0-2.46,2.376A2.594,2.594,0,0,0,29,23.669l.079.007v3.347c-.043-.007-.087-.014-.13-.024a2.008,2.008,0,0,1-1.64-1.414.408.408,0,0,0-.806.126,2.8,2.8,0,0,0,2.264,2.083,2.726,2.726,0,0,0,.312.051v.769a.408.408,0,0,0,.816,0v-.777c.091-.011.181-.022.275-.041a2.647,2.647,0,0,0,2.306-2.419,2.547,2.547,0,0,0-2.356-2.424m-1.046-.1a1.791,1.791,0,0,1-1.7-1.562,1.752,1.752,0,0,1,1.688-1.561h.019v3.124ZM30.01,27c-.04.008-.079.011-.118.018V23.752l.148.014a1.725,1.725,0,0,1,1.617,1.612c0,.889-.855,1.462-1.648,1.618" transform="translate(-18.486 -12.387)" fill="#e1dcdc"/>
      <path id="Path_233" data-name="Path 233" d="M24.348,9.795a.408.408,0,0,0,.377.252.4.4,0,0,0,.156-.031.408.408,0,0,0,.22-.533l-.313-.756a.408.408,0,1,0-.754.313Z" transform="translate(-16.747 -5.913)" fill="#e1dcdc"/>
      <path id="Path_234" data-name="Path 234" d="M45.8,59.364a.408.408,0,0,0-.754.313l.313.756a.408.408,0,1,0,.754-.313Z" transform="translate(-31.407 -41.243)" fill="#e1dcdc"/>
      <path id="Path_235" data-name="Path 235" d="M9.478,45.07l-.755.313a.408.408,0,0,0,.157.785.4.4,0,0,0,.156-.031l.755-.313a.408.408,0,1,0-.313-.754" transform="translate(-5.91 -31.424)" fill="#e1dcdc"/>
      <path id="Path_236" data-name="Path 236" d="M59.14,24.9a.408.408,0,0,0,.377.252.4.4,0,0,0,.156-.031l.755-.313a.408.408,0,0,0-.313-.754l-.756.313a.409.409,0,0,0-.22.534" transform="translate(-41.241 -16.764)" fill="#e1dcdc"/>
      <path id="Path_237" data-name="Path 237" d="M45.244,9.992a.407.407,0,0,0,.533-.221l.313-.756a.408.408,0,0,0-.754-.312l-.313.756a.407.407,0,0,0,.221.533" transform="translate(-31.391 -5.897)" fill="#e1dcdc"/>
      <path id="Path_238" data-name="Path 238" d="M24.92,59.146a.406.406,0,0,0-.533.221l-.313.756a.408.408,0,1,0,.754.312l.313-.756a.407.407,0,0,0-.221-.533" transform="translate(-16.775 -41.245)" fill="#e1dcdc"/>
      <path id="Path_239" data-name="Path 239" d="M8.707,24.843l.756.312a.408.408,0,1,0,.312-.755l-.756-.312a.408.408,0,0,0-.312.755" transform="translate(-5.899 -16.785)" fill="#e1dcdc"/>
      <path id="Path_240" data-name="Path 240" d="M60.438,45.35l-.756-.313a.408.408,0,1,0-.312.754l.756.313a.408.408,0,0,0,.312-.754" transform="translate(-41.248 -31.402)" fill="#e1dcdc"/>
    </g>
  </g>
</svg>
