<?xml version="1.0" encoding="UTF-8"?>
<!DOCTYPE svg PUBLIC "-//W3C//DTD SVG 1.1//EN" "http://www.w3.org/Graphics/SVG/1.1/DTD/svg11.dtd">
<!-- Creator: CorelDRAW X6 -->
<svg xmlns="http://www.w3.org/2000/svg" xml:space="preserve" width="13.3223mm" height="54.7607mm" version="1.1" style="shape-rendering:geometricPrecision; text-rendering:geometricPrecision; image-rendering:optimizeQuality; fill-rule:evenodd; clip-rule:evenodd"
viewBox="0 0 45 186"
 xmlns:xlink="http://www.w3.org/1999/xlink">
 <defs>
  <style type="text/css">
   <![CDATA[
    .fil0 {fill:white}
   ]]>
  </style>
 </defs>
 <g id="Layer_x0020_1">
  <metadata id="CorelCorpID_0Corel-Layer"/>
  <path class="fil0" d="M23 62l0 0c12,0 23,10 23,23l0 79c0,12 -10,23 -23,23l0 0c-12,0 -23,-10 -23,-23l0 -79c0,-12 10,-23 23,-23z"/>
  <path class="fil0" d="M23 0l0 0c12,0 23,10 23,23l0 1c0,12 -10,23 -23,23l0 0c-12,0 -23,-10 -23,-23l0 -1c0,-12 10,-23 23,-23z"/>
 </g>
</svg>
