<?xml version="1.0" encoding="UTF-8"?>
<!DOCTYPE svg PUBLIC "-//W3C//DTD SVG 1.1//EN" "http://www.w3.org/Graphics/SVG/1.1/DTD/svg11.dtd">
<!-- Creator: CorelDRAW X6 -->
<svg xmlns="http://www.w3.org/2000/svg" xml:space="preserve" width="87.1555mm" height="71.2063mm" version="1.1" style="shape-rendering:geometricPrecision; text-rendering:geometricPrecision; image-rendering:optimizeQuality; fill-rule:evenodd; clip-rule:evenodd"
viewBox="0 0 3349 2736"
 xmlns:xlink="http://www.w3.org/1999/xlink">
 <defs>
  <style type="text/css">
   <![CDATA[
    .fil0 {fill:white}
   ]]>
  </style>
 </defs>
 <g id="Layer_x0020_1">
  <metadata id="CorelCorpID_0Corel-Layer"/>
  <path class="fil0" d="M243 0l2875 0c127,0 230,104 230,230l0 0c0,127 -104,230 -230,230l-2875 0c-127,0 -230,-104 -230,-230l0 0c0,-127 104,-230 230,-230z"/>
  <path class="fil0" d="M230 2275l2875 0c127,0 230,104 230,230l0 0c0,127 -104,230 -230,230l-2875 0c-127,0 -230,-104 -230,-230l0 0c0,-127 104,-230 230,-230z"/>
  <path class="fil0" d="M230 1105l2875 0c127,0 230,104 230,230l0 0c0,127 -104,230 -230,230l-2875 0c-127,0 -230,-104 -230,-230l0 0c0,-127 104,-230 230,-230z"/>
 </g>
</svg>
