<?xml version="1.0" encoding="UTF-8"?>
<!DOCTYPE svg PUBLIC "-//W3C//DTD SVG 1.1//EN" "http://www.w3.org/Graphics/SVG/1.1/DTD/svg11.dtd">
<!-- Creator: CorelDRAW X6 -->
<svg xmlns="http://www.w3.org/2000/svg" xml:space="preserve" width="102.442mm" height="102.442mm" version="1.1" style="shape-rendering:geometricPrecision; text-rendering:geometricPrecision; image-rendering:optimizeQuality; fill-rule:evenodd; clip-rule:evenodd"
viewBox="0 0 10316 10316"
 xmlns:xlink="http://www.w3.org/1999/xlink">
 <defs>
  <style type="text/css">
   <![CDATA[
    .fil1 {fill:none}
    .fil0 {fill:white}
   ]]>
  </style>
 </defs>
 <g id="Layer_x0020_1">
  <metadata id="CorelCorpID_0Corel-Layer"/>
  <g id="_532100888">
   <path class="fil0" d="M4826 6094c-178,0 -300,6 -477,-18l-245 -18c-34,2 -37,10 -79,48l-212 177c-22,22 -40,44 -64,63l-285 231c-27,20 -48,35 -74,54 -51,36 -103,71 -156,106l59 -181c20,-67 34,-119 50,-190 8,-38 13,-59 19,-101l27 -334c-72,-38 -149,-70 -221,-111 -83,-46 -178,-99 -251,-159 -18,-14 -29,-24 -46,-39 -143,-120 -289,-294 -372,-462 -152,-306 -212,-518 -212,-891 0,-293 143,-566 270,-734 115,-152 232,-260 379,-371 359,-270 820,-431 1267,-493 585,-81 1178,-16 1716,214 58,25 115,49 168,80 176,105 261,134 444,305 76,71 107,89 185,189 160,206 322,474 322,809 0,253 -36,466 -139,681 -56,116 -153,282 -241,374 -102,107 -125,140 -251,243 -418,340 -1047,525 -1581,525zm-295 -3895l281 0c146,6 291,20 436,44 251,42 490,96 717,188 471,190 916,469 1204,903 81,122 159,253 207,394 106,313 102,388 102,704 0,216 -70,495 -153,688 -10,22 -18,35 -28,57 -105,226 -160,279 -296,453 -38,48 -156,165 -209,208 -325,261 -486,357 -910,511 -397,145 -886,183 -1309,183 -105,0 -265,-21 -311,-21 -12,45 -268,235 -320,274 -58,44 -115,83 -175,122l-365 221c-211,104 -444,238 -688,238 -120,0 -177,-150 -119,-246 114,-189 207,-364 285,-571 35,-94 75,-249 75,-349 -24,-6 -96,-50 -120,-64 -169,-101 -264,-184 -405,-323l-83 -94c-79,-102 -160,-202 -222,-323 -69,-136 -109,-215 -163,-374 -99,-295 -110,-488 -110,-790l0 -5c0,-96 19,-188 35,-268 78,-386 345,-776 646,-1029 517,-436 1245,-701 2000,-730z"/>
   <path class="fil0" d="M4727 6985l-410 -7c7,26 20,28 36,48l132 137c62,62 119,110 189,165 34,26 69,51 103,74l404 218c24,10 41,16 66,26 112,45 295,100 413,124 355,71 511,70 870,70 78,0 132,-14 205,-14 31,58 244,245 311,297 68,53 132,109 208,160 129,85 443,291 645,307l46 0c34,-3 63,-13 86,-33 79,-70 46,-154 10,-226 -105,-207 -203,-619 -203,-829 30,-7 150,-80 182,-100 232,-149 436,-330 572,-573 107,-191 186,-441 186,-683l0 -6c0,-320 -9,-514 -153,-802 -50,-100 -109,-189 -181,-272 -13,-15 -15,-20 -28,-35l-134 -127c-47,-42 -165,-133 -222,-166 -30,-17 -53,-39 -87,-47 0,166 -78,400 -140,552 -88,214 -316,571 -476,733 -114,115 -148,152 -269,254 -31,27 -62,50 -95,75 -120,90 -190,130 -317,206l-109 61c-525,273 -1255,417 -1838,417z"/>
   <path class="fil0" d="M3030 4376c0,117 -3,130 43,239 8,20 25,47 38,68 26,38 72,84 109,110 118,85 208,85 339,85 70,0 119,-22 169,-43 59,-25 111,-69 152,-117 275,-329 6,-773 -327,-773 -101,0 -163,-3 -255,42 -147,73 -268,227 -268,389z"/>
   <path class="fil0" d="M5985 4878c95,0 149,0 238,-45 459,-229 269,-888 -189,-888 -92,0 -141,7 -222,47 -38,19 -105,61 -134,92 -30,33 -72,95 -90,136 -42,94 -50,182 -30,285 6,32 15,59 26,87 61,153 227,286 400,286z"/>
   <path class="fil0" d="M4310 4376c0,117 -3,130 43,239 18,42 37,67 64,98 43,49 86,90 150,119 244,109 511,22 631,-218 154,-308 -93,-669 -394,-669 -89,0 -145,2 -226,42 -58,29 -84,45 -129,90 -77,78 -140,178 -140,299z"/>
  </g>
  <rect class="fil1" width="10316" height="10316"/>
 </g>
</svg>
