<?xml version="1.0" encoding="UTF-8"?>
<!DOCTYPE svg PUBLIC "-//W3C//DTD SVG 1.1//EN" "http://www.w3.org/Graphics/SVG/1.1/DTD/svg11.dtd">
<!-- Creator: CorelDRAW X6 -->
<svg xmlns="http://www.w3.org/2000/svg" xml:space="preserve" width="71.9718mm" height="259.102mm" version="1.1" style="shape-rendering:geometricPrecision; text-rendering:geometricPrecision; image-rendering:optimizeQuality; fill-rule:evenodd; clip-rule:evenodd"
viewBox="0 0 2977 10716"
 xmlns:xlink="http://www.w3.org/1999/xlink">
 <defs>
  <style type="text/css">
   <![CDATA[
    .fil0 {fill:url(#id0)}
   ]]>
  </style>
  <linearGradient id="id0" gradientUnits="userSpaceOnUse" x1="1488.28" y1="10716" x2="1488.28" y2="0">
   <stop offset="0" style="stop-color:#2CAB70"/>
   <stop offset="0.25098" style="stop-color:#4DB150"/>
   <stop offset="0.501961" style="stop-color:#D7DF22"/>
   <stop offset="0.678431" style="stop-color:#FFC300"/>
   <stop offset="0.819608" style="stop-color:#FF7A18"/>
   <stop offset="1" style="stop-color:#F21966"/>
  </linearGradient>
 </defs>
 <g id="Layer_x0020_1">
  <metadata id="CorelCorpID_0Corel-Layer"/>
  <path class="fil0" d="M214 418l2762 0 0 273 -2631 0c-43,-92 -87,-183 -131,-273zm197 418l2565 0 0 273 -2444 0c-40,-92 -80,-183 -121,-273zm182 418l2383 0 0 273 -2271 0c-37,-92 -74,-183 -112,-273zm169 418l2214 0 0 273 -2110 0c-34,-92 -69,-183 -104,-273zm156 418l2057 0 0 273 -1961 0c-32,-92 -64,-183 -96,-273zm145 418l1912 0 0 273 -1822 0c-29,-92 -59,-183 -90,-273zm135 418l1777 0 0 273 -1693 0c-27,-92 -55,-183 -83,-273zm126 418l1651 0 0 273 -1573 0c-25,-92 -51,-183 -78,-273zm117 418l1534 0 0 273 -1461 0c-24,-92 -48,-183 -72,-273zm109 418l1424 0 0 273 -1357 0c-22,-92 -45,-183 -67,-273zm102 418l1322 0 0 273 -1259 0c-21,-92 -42,-183 -63,-273zm95 418l1227 0 0 273 -1169 0c-19,-91 -39,-183 -59,-273zm89 418l1139 0 0 273 -1084 0c-18,-92 -36,-183 -55,-273zm83 418l1056 0 0 273 -1005 0c-17,-91 -34,-183 -51,-273zm77 418l979 0 0 273 -932 0c-16,-91 -31,-183 -48,-273zm72 418l907 0 0 273 -863 0c-14,-91 -29,-183 -44,-273zm67 418l840 0 0 273 -799 0c-13,-91 -27,-183 -41,-273zm62 418l778 0 0 273 -740 0c-12,-91 -25,-183 -38,-273zm58 418l721 0 0 273 -685 0c-12,-91 -23,-182 -36,-273zm54 418l667 0 0 273 -634 0c-11,-91 -22,-182 -33,-273zm50 418l618 0 0 273 -588 0c-10,-91 -20,-183 -30,-273zm46 418l572 0 0 273 -544 0c-9,-91 -18,-182 -28,-273zm42 418l530 0 0 273 -504 0c-8,-91 -17,-182 -26,-273zm39 418l491 0 0 273 -468 0c-8,-91 -16,-182 -24,-273zm36 418l456 0 0 273 -434 0c-7,-91 -14,-182 -22,-273zm-2521 -10443l2977 0 0 273 -2834 0c-47,-92 -94,-183 -142,-273l0 0z"/>
 </g>
</svg>
