<?xml version="1.0" encoding="utf-8"?>
<!-- Generator: Adobe Illustrator 16.0.0, SVG Export Plug-In . SVG Version: 6.00 Build 0)  -->
<!DOCTYPE svg PUBLIC "-//W3C//DTD SVG 1.1//EN" "http://www.w3.org/Graphics/SVG/1.1/DTD/svg11.dtd">
<svg version="1.1" id="Layer_1" xmlns="http://www.w3.org/2000/svg" xmlns:xlink="http://www.w3.org/1999/xlink" x="0px" y="0px"
	 width="293.99px" height="12.781px" viewBox="0 0 293.99 12.781" enable-background="new 0 0 293.99 12.781" xml:space="preserve">
<g id="Layer_x0020_1" display="none">
	<path display="inline" fill="#FF6600" fill-opacity="0.4392" d="M6.495,0h281c3.54,0,6.39,2.85,6.39,6.391l0,0
		c0,3.54-2.85,6.391-6.39,6.391h-281c-3.54,0-6.391-2.851-6.391-6.391l0,0C0.104,2.849,2.955,0,6.495,0z"/>
</g>
<path fill="none" stroke="#000000" stroke-miterlimit="10" d="M293.99,6.495c0,2.698-2.529,4.887-5.65,4.887H6.259
	c-3.121,0-5.651-2.188-5.651-4.887l0,0c0-2.698,2.531-4.886,5.651-4.886H288.34C291.461,1.609,293.99,3.797,293.99,6.495
	L293.99,6.495z"/>
</svg>
