<?xml version="1.0" encoding="utf-8"?>
<!-- Generator: Adobe Illustrator 16.0.0, SVG Export Plug-In . SVG Version: 6.00 Build 0)  -->
<!DOCTYPE svg PUBLIC "-//W3C//DTD SVG 1.1//EN" "http://www.w3.org/Graphics/SVG/1.1/DTD/svg11.dtd">
<svg version="1.1" id="Layer_1" xmlns="http://www.w3.org/2000/svg" xmlns:xlink="http://www.w3.org/1999/xlink" x="0px" y="0px"
	 width="296.218px" height="12.781px" viewBox="0 0 296.218 12.781" enable-background="new 0 0 296.218 12.781"
	 xml:space="preserve">
<g id="Layer_x0020_1" display="none">
	<path display="inline" fill="#FF6600" d="M6.423,0.005h283.448c3.551,0,6.422,2.872,6.422,6.424l0,0
		c0,3.551-2.871,6.423-6.422,6.423H6.423C2.872,12.851,0,9.979,0,6.428l0,0C0,2.877,2.872,0.005,6.423,0.005z"/>
</g>
<linearGradient id="SVGID_1_" gradientUnits="userSpaceOnUse" x1="1.835" y1="6.4954" x2="295.2183" y2="6.4954">
	<stop  offset="0" style="stop-color:#FF0000"/>
	<stop  offset="1" style="stop-color:#7A0808"/>
</linearGradient>
<path fill="url(#SVGID_1_)" d="M295.218,6.495c0,2.698-2.53,4.887-5.651,4.887H7.486c-3.121,0-5.651-2.188-5.651-4.887l0,0
	c0-2.698,2.531-4.886,5.651-4.886h282.081C292.688,1.609,295.218,3.797,295.218,6.495L295.218,6.495z"/>
</svg>
