<svg xmlns="http://www.w3.org/2000/svg" xmlns:xlink="http://www.w3.org/1999/xlink" width="22" height="22" viewBox="0 0 22 22">
  <defs>
    <clipPath id="clip-path">
      <rect id="Rectangle_3225" data-name="Rectangle 3225" width="22" height="22" transform="translate(0.181 -0.005)" fill="none" stroke="#e1dcdc" stroke-width="1"/>
    </clipPath>
  </defs>
  <g id="Group_14551" data-name="Group 14551" transform="translate(-0.181 0.005)">
    <g id="Group_14537" data-name="Group 14537" transform="translate(0 0)" clip-path="url(#clip-path)">
      <path id="Path_2953" data-name="Path 2953" d="M22.819,16.8A6.024,6.024,0,1,1,16.8,22.819,6.031,6.031,0,0,1,22.819,16.8Z" transform="translate(-11.733 -11.733)" fill="none" stroke="#e1dcdc" stroke-linecap="round" stroke-linejoin="round" stroke-width="1"/>
      <path id="Path_2954" data-name="Path 2954" d="M20.779,8.2l1.358-.023a10.747,10.747,0,0,1,.571,2.142l-1.187.659a.481.481,0,0,0-.247.452l.009.134c.011.162.022.316.022.468s-.011.305-.022.468l-.009.135a.482.482,0,0,0,.247.452l1.187.659a10.747,10.747,0,0,1-.571,2.142l-1.358-.022a.481.481,0,0,0-.439.268,9.275,9.275,0,0,1-.6,1.052.481.481,0,0,0-.013.515l.692,1.154a10.882,10.882,0,0,1-1.568,1.568L17.7,19.728a.481.481,0,0,0-.515.013,9.3,9.3,0,0,1-1.052.6.481.481,0,0,0-.268.439l.023,1.358a10.767,10.767,0,0,1-2.142.57l-.659-1.187a.481.481,0,0,0-.421-.248H12.63l-.134.009c-.162.011-.316.022-.468.022s-.306-.011-.468-.022l-.135-.009a.48.48,0,0,0-.452.247l-.659,1.187a10.767,10.767,0,0,1-2.142-.57l.023-1.358a.481.481,0,0,0-.268-.439,9.281,9.281,0,0,1-1.053-.6.481.481,0,0,0-.515-.013L5.2,20.42a10.9,10.9,0,0,1-1.568-1.568L4.329,17.7a.481.481,0,0,0-.013-.515,9.23,9.23,0,0,1-.6-1.052.481.481,0,0,0-.44-.268l-1.358.022a10.767,10.767,0,0,1-.571-2.142l1.187-.659a.481.481,0,0,0,.247-.452L2.773,12.5c-.011-.162-.022-.316-.022-.468s.011-.306.022-.468l.009-.134a.481.481,0,0,0-.247-.452l-1.187-.659A10.747,10.747,0,0,1,1.92,8.173L3.278,8.2a.484.484,0,0,0,.44-.268,9.23,9.23,0,0,1,.6-1.052.482.482,0,0,0,.013-.516L3.636,5.206A10.88,10.88,0,0,1,5.2,3.637l1.154.692a.481.481,0,0,0,.515-.013,9.236,9.236,0,0,1,1.053-.6.482.482,0,0,0,.268-.44L8.172,1.92a10.746,10.746,0,0,1,2.142-.57l.659,1.187a.48.48,0,0,0,.452.247l.135-.009c.162-.011.315-.022.468-.022s.305.011.468.022l.134.009a.482.482,0,0,0,.452-.247l.659-1.187a10.746,10.746,0,0,1,2.142.57l-.023,1.358a.482.482,0,0,0,.268.44,9.256,9.256,0,0,1,1.052.6.481.481,0,0,0,.515.013l1.154-.692A10.88,10.88,0,0,1,20.42,5.206L19.728,6.36a.482.482,0,0,0,.013.516,9.275,9.275,0,0,1,.6,1.052A.481.481,0,0,0,20.779,8.2Z" transform="translate(-0.942 -0.943)" fill="none" stroke="#e1dcdc" stroke-linecap="round" stroke-linejoin="round" stroke-width="1"/>
    </g>
  </g>
</svg>
